<?xml version="1.0" encoding="utf-8"?>
<svg viewBox="0 0 24 24" xmlns="http://www.w3.org/2000/svg">
  <path fill="rgba(255,255,255,1)" d="M 12.495 0.005 L 12.652 0.008 L 12.944 0.02 L 13.086 0.028 L 13.355 0.049 L 13.488 0.061 L 13.743 0.091 L 13.997 0.125 L 14.501 0.227 L 14.63 0.255 L 14.898 0.323 L 15.324 0.44 L 15.665 0.539 L 16.331 0.78 L 16.66 0.908 L 17.3 1.206 L 17.616 1.362 L 18.226 1.714 L 18.527 1.896 L 19.104 2.3 L 19.388 2.508 L 19.929 2.961 L 20.195 3.193 L 20.696 3.692 L 20.942 3.947 L 21.4 4.49 L 22.035 5.352 L 22.137 5.502 L 22.334 5.826 L 22.431 5.992 L 22.619 6.341 L 22.711 6.518 L 22.887 6.886 L 22.973 7.072 L 23.134 7.452 L 23.212 7.643 L 23.355 8.029 L 23.425 8.222 L 23.549 8.608 L 23.608 8.8 L 23.709 9.179 L 23.833 9.733 L 23.861 9.878 L 23.901 10.144 L 23.909 10.212 L 23.924 10.353 L 23.93 10.426 L 23.94 10.585 L 23.946 10.667 L 23.953 10.852 L 23.956 10.95 L 23.959 11.172 L 23.961 11.289 L 23.963 11.558 L 23.965 12.025 L 23.965 12.14 L 23.963 12.356 L 23.963 12.461 L 23.96 12.659 L 23.958 12.853 L 23.946 13.197 L 23.939 13.363 L 23.918 13.664 L 23.905 13.81 L 23.872 14.083 L 23.854 14.217 L 23.806 14.478 L 23.781 14.608 L 23.717 14.874 L 23.683 15.008 L 23.601 15.293 L 23.455 15.761 L 23.344 16.102 L 23.076 16.767 L 22.934 17.097 L 22.607 17.734 L 22.437 18.05 L 22.054 18.656 L 21.855 18.955 L 21.419 19.527 L 21.195 19.807 L 20.709 20.34 L 20.461 20.6 L 19.929 21.089 L 19.657 21.328 L 19.082 21.77 L 18.174 22.376 L 17.91 22.535 L 17.354 22.824 L 17.071 22.963 L 16.476 23.212 L 16.173 23.333 L 15.542 23.542 L 14.554 23.809 L 14.466 23.83 L 14.311 23.865 L 14.237 23.881 L 14.099 23.908 L 14.03 23.92 L 13.893 23.939 L 13.824 23.948 L 13.672 23.961 L 13.593 23.968 L 13.411 23.977 L 13.315 23.981 L 13.087 23.987 L 13.026 23.988 L 12.894 23.99 L 12.826 23.991 L 12.677 23.993 L 12.599 23.994 L 12.431 23.996 L 12.156 23.997 L 11.929 23.999 L 11.502 24 L 11.399 24 L 11.205 23.999 L 11.11 23.999 L 10.938 23.998 L 10.854 23.997 L 10.708 23.995 L 10.638 23.994 L 10.524 23.991 L 10.471 23.99 L 10.391 23.987 L 10.357 23.985 L 10.32 23.981 L 10.132 23.953 L 9.746 23.878 L 9.552 23.839 L 9.159 23.742 L 8.962 23.691 L 8.567 23.574 L 8.37 23.513 L 7.978 23.378 L 7.783 23.309 L 7.401 23.158 L 7.212 23.081 L 6.844 22.915 L 6.662 22.831 L 6.315 22.653 L 5.822 22.376 L 5.637 22.264 L 5.279 22.028 L 5.101 21.908 L 4.758 21.655 L 4.588 21.527 L 4.26 21.258 L 4.098 21.122 L 3.785 20.837 L 3.631 20.693 L 3.335 20.394 L 3.189 20.242 L 2.909 19.929 L 2.771 19.77 L 2.509 19.443 L 2.379 19.277 L 2.134 18.937 L 2.014 18.765 L 1.787 18.412 L 1.675 18.234 L 1.466 17.868 L 1.364 17.684 L 1.173 17.307 L 1.08 17.118 L 0.909 16.73 L 0.825 16.535 L 0.673 16.137 L 0.6 15.937 L 0.467 15.53 L 0.404 15.324 L 0.292 14.908 L 0.147 14.273 L 0.13 14.192 L 0.103 14.047 L 0.091 13.976 L 0.069 13.839 L 0.049 13.703 L 0.025 13.41 L 0.02 13.331 L 0.012 13.155 L 0.009 13.063 L 0.004 12.851 L 0.003 12.739 L 0.001 12.48 L 0 12.025 L 0 11.858 L 0.001 11.57 L 0.002 11.434 L 0.004 11.199 L 0.006 11.088 L 0.012 10.895 L 0.016 10.802 L 0.025 10.64 L 0.035 10.483 L 0.069 10.211 L 0.079 10.143 L 0.103 10.003 L 0.147 9.777 L 0.185 9.587 L 0.279 9.199 L 0.329 9.005 L 0.445 8.613 L 0.506 8.417 L 0.641 8.027 L 0.711 7.832 L 0.864 7.447 L 0.942 7.255 L 1.111 6.882 L 1.196 6.696 L 1.377 6.339 L 1.47 6.163 L 1.661 5.826 L 1.96 5.352 L 2.16 5.055 L 2.595 4.49 L 2.819 4.214 L 3.299 3.692 L 3.544 3.437 L 4.066 2.961 L 4.332 2.728 L 4.891 2.3 L 5.175 2.092 L 5.77 1.714 L 6.071 1.532 L 6.696 1.206 L 7.012 1.05 L 7.665 0.78 L 8.672 0.44 L 8.82 0.397 L 9.098 0.323 L 9.234 0.287 L 9.494 0.227 L 9.752 0.169 L 10.253 0.091 L 10.379 0.075 L 10.64 0.049 L 10.773 0.037 L 11.052 0.02 L 11.194 0.013 L 11.5 0.005 L 11.998 0 L 12.174 0 M 11.814 0.629 L 11.452 0.636 L 11.274 0.641 L 10.938 0.657 L 10.775 0.667 L 10.487 0.693 L 10.419 0.7 L 10.295 0.715 L 10.13 0.742 L 9.895 0.786 L 9.437 0.89 L 9.211 0.945 L 8.767 1.071 L 8.548 1.136 L 8.12 1.282 L 7.908 1.358 L 7.495 1.526 L 7.29 1.613 L 6.891 1.802 L 6.694 1.899 L 6.309 2.11 L 6.12 2.218 L 5.749 2.45 L 5.21 2.823 L 5.121 2.888 L 4.918 3.054 L 4.813 3.142 L 4.587 3.344 L 4.471 3.449 L 4.232 3.677 L 4.112 3.793 L 3.871 4.036 L 3.75 4.159 L 3.517 4.406 L 3.403 4.528 L 3.19 4.768 L 3.086 4.886 L 2.903 5.108 L 2.673 5.408 L 2.607 5.502 L 2.467 5.717 L 2.397 5.828 L 2.252 6.073 L 2.179 6.199 L 2.033 6.465 L 1.961 6.599 L 1.819 6.876 L 1.679 7.155 L 1.43 7.705 L 1.373 7.839 L 1.271 8.094 L 1.143 8.448 L 1.049 8.736 L 0.894 9.323 L 0.822 9.616 L 0.715 10.211 L 0.668 10.509 L 0.608 11.109 L 0.585 11.409 L 0.573 12.012 L 0.573 12.314 L 0.609 12.918 L 0.633 13.22 L 0.716 13.822 L 0.764 14.123 L 0.894 14.72 L 1.144 15.609 L 1.179 15.718 L 1.268 15.958 L 1.316 16.082 L 1.426 16.344 L 1.54 16.609 L 1.811 17.166 L 1.951 17.443 L 2.246 17.967 L 2.319 18.093 L 2.464 18.326 L 2.674 18.64 L 2.738 18.73 L 2.89 18.925 L 2.968 19.025 L 3.143 19.234 L 3.323 19.446 L 3.726 19.881 L 3.93 20.097 L 4.342 20.497 L 4.443 20.592 L 4.637 20.766 L 4.911 20.996 L 5.112 21.155 L 5.533 21.453 L 5.747 21.598 L 6.194 21.869 L 6.42 22 L 6.888 22.242 L 7.125 22.359 L 7.612 22.57 L 7.858 22.672 L 8.361 22.851 L 8.614 22.936 L 9.13 23.083 L 9.39 23.151 L 9.915 23.263 L 10.711 23.391 L 10.75 23.396 L 10.842 23.404 L 10.891 23.408 L 11.001 23.414 L 11.115 23.42 L 11.383 23.426 L 11.523 23.428 L 11.827 23.428 L 11.981 23.426 L 12.3 23.419 L 12.461 23.414 L 12.774 23.401 L 12.929 23.393 L 13.217 23.374 L 13.356 23.365 L 13.597 23.342 L 13.654 23.335 L 13.755 23.323 L 13.803 23.316 L 13.885 23.302 L 14.114 23.26 L 14.564 23.158 L 14.787 23.105 L 15.226 22.981 L 15.444 22.916 L 15.87 22.77 L 16.082 22.694 L 16.495 22.525 L 16.7 22.439 L 17.1 22.249 L 17.299 22.151 L 17.684 21.94 L 17.875 21.832 L 18.246 21.6 L 18.786 21.227 L 18.875 21.162 L 19.078 20.996 L 19.183 20.908 L 19.409 20.706 L 19.524 20.601 L 19.764 20.373 L 19.884 20.257 L 20.126 20.014 L 20.245 19.891 L 20.478 19.644 L 20.592 19.522 L 20.806 19.282 L 20.91 19.164 L 21.093 18.942 L 21.322 18.642 L 21.39 18.546 L 21.533 18.327 L 21.604 18.214 L 21.751 17.967 L 21.898 17.714 L 22.185 17.164 L 22.325 16.887 L 22.57 16.342 L 22.627 16.209 L 22.727 15.958 L 22.851 15.609 L 22.947 15.314 L 23.102 14.722 L 23.173 14.425 L 23.28 13.828 L 23.328 13.529 L 23.387 12.93 L 23.411 12.631 L 23.423 12.031 L 23.423 11.731 L 23.388 11.132 L 23.364 10.833 L 23.282 10.236 L 23.235 9.939 L 23.104 9.346 L 22.855 8.463 L 22.819 8.353 L 22.729 8.108 L 22.681 7.984 L 22.57 7.718 L 22.454 7.449 L 22.182 6.887 L 22.113 6.748 L 21.968 6.473 L 21.895 6.339 L 21.748 6.08 L 21.675 5.954 L 21.531 5.721 L 21.322 5.408 L 21.257 5.317 L 21.093 5.108 L 21.006 5 L 20.806 4.768 L 20.702 4.65 L 20.478 4.406 L 20.364 4.283 L 20.125 4.036 L 20.005 3.914 L 19.764 3.677 L 19.643 3.561 L 19.409 3.344 L 19.294 3.239 L 19.078 3.054 L 18.786 2.823 L 18.609 2.693 L 18.246 2.45 L 18.063 2.331 L 17.686 2.11 L 17.496 2.002 L 17.104 1.802 L 16.907 1.704 L 16.501 1.526 L 16.296 1.44 L 15.875 1.282 L 15.663 1.206 L 15.228 1.071 L 15.008 1.005 L 14.558 0.89 L 13.866 0.742 L 13.816 0.733 L 13.701 0.715 L 13.641 0.707 L 13.509 0.693 L 13.372 0.678 L 13.058 0.657 L 12.895 0.648 L 12.544 0.636 L 12.365 0.631 L 11.998 0.629 M 12.378 19.056 L 12.378 19.363 L 12.378 19.515 L 12.379 19.803 L 12.379 19.945 L 12.38 20.213 L 12.38 20.345 L 12.381 20.594 L 12.382 20.716 L 12.384 20.946 L 12.385 21.058 L 12.387 21.269 L 12.388 21.371 L 12.39 21.561 L 12.391 21.653 L 12.394 21.823 L 12.395 21.905 L 12.398 22.056 L 12.399 22.128 L 12.403 22.258 L 12.404 22.32 L 12.408 22.428 L 12.41 22.48 L 12.414 22.569 L 12.416 22.611 L 12.419 22.679 L 12.422 22.71 L 12.426 22.757 L 12.428 22.779 L 12.433 22.805 L 12.441 22.82 L 12.446 22.82 L 12.456 22.77 L 12.46 22.737 L 12.468 22.623 L 12.472 22.557 L 12.479 22.377 L 12.483 22.28 L 12.488 22.037 L 12.491 21.907 L 12.495 21.602 L 12.497 21.442 L 12.501 21.075 L 12.502 20.884 L 12.503 20.457 L 12.504 19.75 L 12.504 16.679 L 15.038 16.679 L 15.022 19.575 L 15.005 22.472 L 14.388 22.609 L 14.258 22.637 L 13.98 22.689 L 13.839 22.714 L 13.546 22.756 L 13.252 22.797 L 12.651 22.85 L 12.503 22.86 L 12.214 22.873 L 12.071 22.878 L 11.798 22.88 L 11.664 22.879 L 11.416 22.87 L 11.296 22.863 L 11.08 22.842 L 11.054 22.839 L 10.964 22.827 L 10.916 22.821 L 10.792 22.805 L 10.367 22.75 L 9.845 22.68 L 9.845 14.969 L 12.378 14.969 M 9.718 18.402 L 9.718 19.735 L 9.718 19.948 L 9.717 20.329 L 9.717 20.512 L 9.715 20.836 L 9.715 20.992 L 9.712 21.264 L 9.711 21.394 L 9.708 21.619 L 9.706 21.726 L 9.701 21.907 L 9.698 21.992 L 9.692 22.135 L 9.689 22.202 L 9.68 22.31 L 9.676 22.36 L 9.666 22.439 L 9.66 22.474 L 9.647 22.527 L 9.641 22.55 L 9.626 22.582 L 9.611 22.608 L 9.571 22.618 L 9.549 22.618 L 9.497 22.6 L 9.488 22.598 L 9.427 22.579 L 9.39 22.568 L 9.285 22.535 L 9.227 22.518 L 9.09 22.477 L 8.864 22.41 L 8.785 22.387 L 8.598 22.325 L 8.5 22.292 L 8.294 22.217 L 8.191 22.179 L 7.99 22.102 L 7.724 21.992 L 7.154 21.744 L 7.171 17.818 L 7.188 13.893 L 9.718 13.893 M 17.696 21.293 L 16.857 21.709 L 16.627 21.823 L 16.135 22.046 L 16.018 22.097 L 15.813 22.183 L 15.766 22.202 L 15.682 22.235 L 15.575 22.273 L 15.132 22.422 L 15.15 20.311 L 15.167 18.198 L 17.696 18.198 M 7.059 18.172 L 7.058 18.67 L 7.058 18.915 L 7.057 19.376 L 7.057 19.601 L 7.055 20.016 L 7.055 20.216 L 7.053 20.574 L 7.052 20.659 L 7.052 20.818 L 7.051 20.894 L 7.05 21.035 L 7.049 21.103 L 7.048 21.224 L 7.047 21.282 L 7.046 21.384 L 7.045 21.431 L 7.044 21.51 L 7.043 21.548 L 7.042 21.604 L 7.041 21.629 L 7.039 21.661 L 7.038 21.681 L 7.034 21.681 L 6.989 21.657 L 6.96 21.641 L 6.872 21.59 L 6.824 21.562 L 6.705 21.493 L 6.642 21.456 L 6.504 21.373 L 6.339 21.274 L 6.026 21.074 L 5.873 20.974 L 5.589 20.775 L 5.451 20.676 L 5.198 20.481 L 4.859 20.195 L 4.526 19.896 L 4.526 14.146 L 7.059 14.146 M 19.522 19.813 L 19.423 19.909 L 19.204 20.11 L 19.093 20.21 L 18.87 20.404 L 18.761 20.497 L 18.56 20.66 L 18.512 20.698 L 18.426 20.764 L 18.313 20.846 L 17.823 21.182 L 17.823 19.153 L 19.032 19.135 L 20.24 19.116 M 2.876 15.539 L 4.4 15.539 L 4.4 17.772 L 4.399 18.048 L 4.399 18.184 L 4.398 18.44 L 4.397 18.565 L 4.395 18.795 L 4.395 18.906 L 4.392 19.104 L 4.391 19.199 L 4.388 19.36 L 4.387 19.435 L 4.384 19.553 L 4.383 19.606 L 4.38 19.676 L 4.374 19.718 L 4.371 19.718 L 4.331 19.682 L 4.306 19.659 L 4.232 19.584 L 4.192 19.543 L 4.092 19.439 L 4.041 19.385 L 3.926 19.262 L 3.745 19.066 L 3.391 18.625 L 3.217 18.398 L 2.888 17.913 L 2.729 17.666 L 2.44 17.156 L 2.063 16.384 L 2.015 16.274 L 1.937 16.094 L 1.903 16.011 L 1.858 15.879 L 1.84 15.819 L 1.837 15.728 L 1.843 15.688 L 1.892 15.63 L 1.908 15.618 L 1.952 15.597 L 1.975 15.588 L 2.036 15.573 L 2.067 15.567 L 2.145 15.557 L 2.186 15.553 L 2.282 15.547 L 2.332 15.544 L 2.448 15.542 L 2.509 15.54 L 2.645 15.539 L 2.716 15.539 M 9.52 11.019 L 9.813 11.038 L 10.402 11.118 L 11.293 11.298 L 11.617 11.377 L 12.243 11.563 L 12.405 11.615 L 12.751 11.736 L 12.929 11.8 L 13.324 11.952 L 13.426 11.991 L 13.645 12.079 L 13.756 12.124 L 13.994 12.223 L 14.115 12.273 L 14.375 12.383 L 14.508 12.44 L 14.792 12.563 L 14.938 12.625 L 15.25 12.762 L 15.409 12.832 L 15.752 12.983 L 15.927 13.061 L 16.302 13.227 L 16.905 13.497 L 17.152 13.608 L 17.611 13.809 L 17.835 13.906 L 18.257 14.083 L 18.465 14.17 L 18.864 14.328 L 19.061 14.406 L 19.451 14.55 L 19.646 14.621 L 20.039 14.757 L 20.237 14.824 L 20.649 14.956 L 20.858 15.022 L 21.3 15.155 L 22.013 15.361 L 22.309 15.444 L 22.099 15.961 L 21.995 16.216 L 21.758 16.724 L 21.635 16.976 L 21.366 17.464 L 21.229 17.703 L 20.941 18.15 L 20.869 18.258 L 20.722 18.464 L 20.501 18.752 L 20.284 19.021 L 17.823 19.021 L 17.823 18.072 L 15.164 18.072 L 15.164 16.552 L 12.504 16.552 L 12.504 14.843 L 9.845 14.843 L 9.845 13.766 L 8.139 13.766 L 8.004 13.767 L 7.939 13.767 L 7.822 13.767 L 7.765 13.767 L 7.664 13.769 L 7.568 13.77 L 7.417 13.774 L 7.349 13.776 L 7.249 13.783 L 7.204 13.788 L 7.144 13.798 L 7.117 13.805 L 7.087 13.821 L 7.074 13.83 L 7.064 13.852 L 7.059 13.893 L 7.059 13.923 L 7.033 13.964 L 7.02 13.973 L 6.978 13.987 L 6.953 13.993 L 6.877 14.002 L 6.834 14.006 L 6.716 14.012 L 6.651 14.014 L 6.48 14.017 L 6.388 14.018 L 6.156 14.019 L 6.094 14.019 L 4.4 14.019 L 4.4 15.407 L 1.688 15.444 L 1.559 14.969 L 1.541 14.901 L 1.502 14.744 L 1.483 14.663 L 1.444 14.49 L 1.404 14.316 L 1.335 13.968 L 1.319 13.885 L 1.292 13.734 L 1.28 13.662 L 1.261 13.541 L 1.253 13.486 L 1.245 13.408 L 1.249 13.35 L 1.252 13.348 L 1.275 13.334 L 1.29 13.327 L 1.335 13.303 L 1.361 13.291 L 1.427 13.26 L 1.462 13.243 L 1.545 13.204 L 1.632 13.163 L 1.848 13.065 L 1.962 13.013 L 2.217 12.898 L 2.478 12.78 L 3.037 12.533 L 3.173 12.473 L 3.432 12.361 L 3.778 12.213 L 3.962 12.135 L 4.32 11.992 L 4.498 11.922 L 4.846 11.794 L 5.018 11.732 L 5.357 11.619 L 5.524 11.563 L 5.854 11.465 L 6.181 11.37 L 6.813 11.224 L 7.127 11.159 L 7.737 11.071 L 8.04 11.034 L 8.635 11.002 L 8.931 10.994 M 16.301 5.692 L 16.695 5.709 L 16.886 5.719 L 17.23 5.757 L 17.311 5.768 L 17.459 5.794 L 17.656 5.839 L 17.725 5.858 L 17.854 5.89 L 17.916 5.905 L 18.023 5.927 L 18.072 5.937 L 18.145 5.947 L 18.203 5.947 L 18.211 5.942 L 18.258 5.944 L 18.286 5.947 L 18.369 5.964 L 18.415 5.973 L 18.529 6.003 L 18.591 6.019 L 18.732 6.059 L 18.806 6.08 L 18.968 6.13 L 19.052 6.155 L 19.23 6.211 L 19.412 6.27 L 19.803 6.401 L 19.999 6.468 L 20.387 6.606 L 20.578 6.674 L 20.923 6.805 L 21.005 6.836 L 21.153 6.896 L 21.225 6.925 L 21.349 6.978 L 21.407 7.003 L 21.501 7.048 L 21.602 7.103 L 21.613 7.11 L 21.638 7.138 L 21.651 7.153 L 21.68 7.197 L 21.711 7.244 L 21.783 7.381 L 21.82 7.457 L 21.902 7.64 L 21.945 7.737 L 22.032 7.955 L 22.076 8.067 L 22.165 8.308 L 22.209 8.43 L 22.294 8.681 L 22.336 8.806 L 22.412 9.055 L 22.512 9.415 L 22.56 9.601 L 22.639 10.001 L 22.675 10.204 L 22.731 10.631 L 22.756 10.848 L 22.791 11.291 L 22.805 11.513 L 22.816 11.96 L 22.819 12.183 L 22.808 12.623 L 22.8 12.841 L 22.765 13.26 L 22.745 13.467 L 22.688 13.855 L 22.577 14.39 L 22.548 14.499 L 22.503 14.676 L 22.482 14.758 L 22.446 14.885 L 22.429 14.943 L 22.396 15.027 L 22.38 15.065 L 22.345 15.113 L 22.327 15.133 L 22.282 15.152 L 22.259 15.158 L 22.2 15.154 L 22.168 15.15 L 22.088 15.129 L 22.045 15.118 L 21.938 15.088 L 21.855 15.065 L 21.67 15.014 L 21.575 14.986 L 21.372 14.927 L 21.168 14.867 L 20.748 14.739 L 20.646 14.707 L 20.45 14.646 L 20.354 14.615 L 20.18 14.558 L 20.097 14.531 L 19.954 14.482 L 19.786 14.422 L 19.672 14.378 L 19.43 14.286 L 19.372 14.264 L 19.271 14.226 L 19.153 14.181 L 19.078 14.152 L 18.908 14.087 L 18.82 14.052 L 18.627 13.974 L 18.528 13.933 L 18.315 13.845 L 18.207 13.8 L 17.979 13.704 L 17.749 13.607 L 17.261 13.395 L 16.525 13.066 L 16.296 12.962 L 15.864 12.768 L 15.652 12.673 L 15.252 12.497 L 15.057 12.411 L 14.687 12.252 L 14.506 12.174 L 14.163 12.031 L 13.995 11.962 L 13.676 11.833 L 13.52 11.771 L 13.223 11.657 L 13.077 11.601 L 12.799 11.501 L 12.663 11.452 L 12.401 11.363 L 12.143 11.278 L 11.665 11.14 L 11.429 11.077 L 10.98 10.976 L 10.757 10.931 L 10.316 10.861 L 9.64 10.785 L 9.378 10.761 L 8.855 10.748 L 8.593 10.747 L 8.061 10.781 L 7.792 10.805 L 7.236 10.891 L 7.095 10.916 L 6.806 10.976 L 6.66 11.008 L 6.36 11.083 L 6.208 11.121 L 5.895 11.211 L 5.737 11.257 L 5.41 11.361 L 5.244 11.415 L 4.9 11.535 L 4.726 11.597 L 4.364 11.732 L 4.18 11.803 L 3.798 11.955 L 3.605 12.033 L 3.201 12.202 L 2.996 12.289 L 2.569 12.476 L 1.899 12.776 L 1.807 12.818 L 1.641 12.887 L 1.561 12.92 L 1.428 12.967 L 1.368 12.987 L 1.28 13.009 L 1.261 13.012 L 1.234 13.014 L 1.21 13.008 L 1.206 13.004 L 1.2 12.972 L 1.197 12.952 L 1.192 12.891 L 1.19 12.858 L 1.187 12.772 L 1.185 12.726 L 1.183 12.62 L 1.181 12.509 L 1.183 12.243 L 1.184 12.106 L 1.19 11.811 L 1.193 11.663 L 1.202 11.371 L 1.207 11.228 L 1.22 10.973 L 1.223 10.913 L 1.231 10.804 L 1.234 10.753 L 1.242 10.665 L 1.245 10.624 L 1.254 10.561 L 1.266 10.497 L 1.275 10.47 L 1.304 10.428 L 1.323 10.407 L 1.38 10.374 L 1.413 10.358 L 1.506 10.329 L 1.699 10.287 L 1.78 10.271 L 1.958 10.234 L 2.05 10.215 L 2.243 10.174 L 2.438 10.131 L 2.833 10.038 L 2.929 10.015 L 3.112 9.969 L 3.201 9.947 L 3.363 9.905 L 3.441 9.884 L 3.574 9.846 L 3.729 9.799 L 3.814 9.77 L 4.014 9.718 L 4.063 9.706 L 4.153 9.687 L 4.265 9.67 L 4.327 9.663 L 4.435 9.635 L 4.459 9.628 L 4.495 9.612 L 4.526 9.588 L 4.531 9.58 L 4.564 9.56 L 4.583 9.55 L 4.639 9.528 L 4.863 9.463 L 4.946 9.445 L 5.107 9.399 L 5.144 9.387 L 5.206 9.366 L 5.272 9.338 L 5.34 9.302 L 5.505 9.224 L 5.59 9.185 L 5.782 9.105 L 6.394 8.881 L 6.455 8.862 L 6.572 8.82 L 6.629 8.799 L 6.73 8.759 L 6.777 8.739 L 6.849 8.704 L 6.913 8.664 L 6.924 8.654 L 6.973 8.626 L 7.002 8.612 L 7.079 8.578 L 7.373 8.475 L 7.425 8.46 L 7.521 8.427 L 7.567 8.411 L 7.643 8.381 L 7.678 8.366 L 7.725 8.341 L 7.756 8.314 L 7.756 8.308 L 7.771 8.293 L 7.78 8.285 L 7.811 8.269 L 7.946 8.226 L 7.997 8.215 L 8.08 8.184 L 8.097 8.177 L 8.121 8.161 L 8.135 8.142 L 8.135 8.136 L 8.156 8.118 L 8.168 8.108 L 8.21 8.084 L 8.256 8.058 L 8.394 7.997 L 8.466 7.966 L 8.626 7.908 L 8.848 7.842 L 8.896 7.831 L 8.971 7.799 L 8.986 7.791 L 9.008 7.775 L 9.022 7.753 L 9.022 7.747 L 9.056 7.722 L 9.078 7.707 L 9.149 7.669 L 9.188 7.649 L 9.285 7.602 L 9.335 7.577 L 9.449 7.526 L 9.565 7.473 L 9.805 7.375 L 9.861 7.353 L 9.965 7.314 L 10.095 7.272 L 10.138 7.26 L 10.23 7.216 L 10.336 7.142 L 10.348 7.13 L 10.398 7.1 L 10.427 7.085 L 10.503 7.051 L 10.783 6.952 L 10.882 6.924 L 11.049 6.861 L 11.085 6.846 L 11.138 6.82 L 11.181 6.788 L 11.187 6.78 L 11.218 6.76 L 11.237 6.75 L 11.29 6.728 L 11.496 6.667 L 11.572 6.649 L 11.701 6.608 L 11.729 6.598 L 11.772 6.579 L 11.807 6.554 L 11.812 6.545 L 11.866 6.517 L 11.899 6.501 L 11.997 6.461 L 12.05 6.441 L 12.178 6.394 L 12.244 6.371 L 12.388 6.323 L 12.535 6.275 L 12.82 6.193 L 12.887 6.175 L 13 6.147 L 13.129 6.124 L 13.188 6.118 L 13.329 6.082 L 13.509 6.016 L 13.55 5.995 L 13.653 5.956 L 13.707 5.937 L 13.835 5.902 L 13.902 5.885 L 14.052 5.853 L 14.129 5.838 L 14.297 5.811 L 14.469 5.784 L 14.855 5.744 L 15.052 5.726 L 15.467 5.704 L 15.676 5.695 L 16.094 5.691 M 2.531 9.549 L 2.56 9.559 L 2.599 9.596 L 2.611 9.666 L 2.602 9.693 L 2.562 9.731 L 2.54 9.748 L 2.518 9.753 L 2.523 9.742 L 2.533 9.706 L 2.523 9.682 L 2.472 9.615 L 2.423 9.587 L 2.398 9.587 L 2.35 9.599 L 2.362 9.573 L 2.384 9.552 L 2.442 9.537 L 2.472 9.534 M 4.207 9.287 L 4.185 9.302 L 4.135 9.321 L 4.109 9.329 L 4.054 9.33 L 4.026 9.327 L 4.016 9.323 L 4.04 9.325 L 4.064 9.326 L 4.181 9.3 L 4.23 9.267 M 2.924 9.318 L 2.904 9.32 L 2.91 9.318 L 2.956 9.299 M 3.131 8.696 L 3.156 8.744 L 3.184 8.836 L 3.194 8.882 L 3.191 8.97 L 3.185 9.014 L 3.153 9.095 L 3.07 9.207 L 3.068 9.209 L 3.069 9.208 L 3.065 9.191 L 3.055 9.182 L 3.032 9.162 L 3.013 9.15 L 2.925 9.118 L 2.866 9.118 L 2.84 9.128 L 2.794 9.152 L 2.778 9.172 L 2.754 9.217 L 2.754 9.246 L 2.761 9.292 L 2.774 9.306 L 2.783 9.312 L 2.742 9.295 L 2.701 9.275 L 2.604 9.203 L 2.56 9.168 L 2.498 9.093 L 2.472 9.055 L 2.466 9.033 L 2.466 9.031 L 2.472 9.011 L 2.484 8.961 L 2.492 8.923 L 2.52 8.829 L 2.544 8.783 L 2.561 8.767 L 2.597 8.74 L 2.622 8.731 L 2.676 8.716 L 2.711 8.712 L 2.861 8.719 L 2.95 8.743 L 2.973 8.763 L 3.048 8.8 L 3.086 8.79 L 3.1 8.767 L 3.122 8.686 L 3.121 8.683 M 3.919 8.945 L 3.925 8.954 L 3.987 8.999 L 4.049 9.017 L 4.081 9.017 L 4.128 9.028 L 4.15 9.043 L 4.157 9.055 L 4.174 9.107 L 4.169 9.139 L 4.147 9.204 L 4.124 9.231 L 4.068 9.282 L 4.029 9.292 L 3.998 9.301 L 3.991 9.304 L 3.983 9.31 L 3.971 9.305 L 3.945 9.29 L 3.896 9.242 L 3.875 9.217 L 3.848 9.143 L 3.841 9.036 L 3.848 8.998 L 3.903 8.944 L 3.922 8.931 M 4.293 9.076 L 4.299 9.104 L 4.294 9.158 L 4.288 9.184 L 4.262 9.23 L 4.258 9.237 L 4.265 9.225 L 4.295 9.106 L 4.285 9.054 M 5.519 8.669 L 5.526 8.695 L 5.55 8.753 L 5.577 8.796 L 5.641 8.879 L 5.676 8.908 L 5.744 8.954 L 5.769 8.954 L 5.783 8.948 L 5.682 9.005 L 5.634 9.022 L 5.527 9.062 L 5.477 9.081 L 5.51 9.061 L 5.54 9.024 L 5.54 9.007 L 5.521 8.976 L 5.493 8.975 L 5.476 8.986 L 5.431 8.997 L 5.413 8.984 L 5.413 8.969 L 5.385 8.929 L 5.344 8.912 L 5.318 8.912 L 5.258 8.931 L 5.257 8.933 L 5.258 8.928 L 5.369 8.779 L 5.405 8.743 L 5.461 8.695 L 5.488 8.674 L 5.527 8.658 M 4.273 9.017 L 4.273 9.018 L 4.271 9.015 M 4.252 8.988 L 4.252 8.989 L 4.251 8.988 M 2.445 8.963 L 2.438 8.931 L 2.441 8.903 M 2.443 8.886 L 2.448 8.841 L 2.452 8.83 M 5.812 8.767 L 5.838 8.795 L 5.845 8.829 L 5.837 8.801 L 5.817 8.774 L 5.802 8.759 M 2.642 8.598 L 2.554 8.637 L 2.524 8.669 L 2.501 8.701 L 2.503 8.696 L 2.514 8.674 L 2.547 8.64 L 2.564 8.624 L 2.61 8.602 L 2.635 8.593 L 2.698 8.581 L 2.814 8.574 M 2.936 8.581 L 2.97 8.586 L 2.978 8.588 L 2.976 8.588 L 2.909 8.579 M 6.047 8.104 L 6.095 8.117 L 6.108 8.13 L 6.128 8.163 L 6.131 8.191 L 6.132 8.257 L 6.129 8.305 L 6.124 8.408 L 6.125 8.44 L 6.13 8.491 L 6.135 8.494 L 6.122 8.499 L 6.045 8.507 L 6.007 8.507 L 5.931 8.482 L 5.893 8.465 L 5.826 8.408 L 5.79 8.372 L 5.754 8.291 L 5.741 8.25 L 5.749 8.165 L 5.759 8.123 L 5.773 8.101 L 5.931 8.1 M 3.141 7.689 L 3.18 7.696 L 3.254 7.733 L 3.319 7.797 L 3.305 7.788 L 3.299 7.794 L 3.287 7.814 L 3.283 7.839 L 3.276 7.897 L 3.273 7.941 L 3.274 8.1 L 3.28 8.146 L 3.284 8.164 L 3.293 8.196 L 3.298 8.205 L 3.327 8.236 L 3.342 8.232 L 3.346 8.23 L 3.323 8.258 L 3.292 8.289 L 3.228 8.332 L 3.194 8.351 L 3.125 8.371 L 3.089 8.378 L 3.013 8.374 L 2.974 8.368 L 2.892 8.341 L 2.869 8.332 L 2.815 8.27 L 2.748 8.148 L 2.73 8.101 L 2.724 8.014 L 2.725 7.972 L 2.75 7.896 L 2.767 7.859 L 2.817 7.798 L 2.844 7.77 L 2.911 7.727 L 2.947 7.709 L 3.023 7.689 L 3.062 7.682 M 7.358 7.728 L 7.457 7.815 L 7.489 7.853 L 7.532 7.934 L 7.549 7.974 L 7.561 8.053 L 7.564 8.092 L 7.545 8.162 L 7.48 8.249 L 7.446 8.279 L 7.351 8.32 L 7.302 8.339 L 7.195 8.357 L 7.143 8.363 L 7.049 8.356 L 7.006 8.349 L 6.948 8.313 L 6.916 8.28 L 6.882 8.191 L 6.869 8.144 L 6.87 8.092 L 6.876 8.169 L 6.888 8.203 L 6.9 8.234 L 6.908 8.243 L 6.924 8.258 L 6.932 8.258 L 6.977 8.213 L 6.996 8.149 L 6.996 8.107 L 7.018 7.999 L 7.05 7.928 L 7.071 7.9 L 7.115 7.85 L 7.136 7.839 L 7.177 7.826 L 7.191 7.84 L 7.234 7.832 L 7.276 7.801 L 7.299 7.776 L 7.336 7.732 L 7.342 7.72 M 6.271 8.004 L 6.321 8.079 L 6.342 8.116 L 6.357 8.192 L 6.36 8.23 L 6.359 8.232 L 6.359 8.222 L 6.348 8.172 L 6.33 8.154 L 6.286 8.128 L 6.252 8.126 L 6.192 8.114 L 6.197 8.099 L 6.223 8.088 L 6.271 8.044 L 6.269 8.023 L 6.263 8.011 L 6.245 7.984 L 6.236 7.973 M 3.441 8.088 L 3.41 8.153 L 3.409 8.154 L 3.435 8.101 L 3.443 8.068 M 6.877 7.999 L 6.878 7.991 L 6.891 7.958 M 6.914 7.902 L 6.916 7.897 L 6.917 7.896 M 6.115 7.885 L 6.121 7.889 L 6.111 7.885 M 3.351 7.828 L 3.384 7.875 L 3.369 7.854 L 3.333 7.81 M 6.56 7.856 L 6.606 7.868 L 6.602 7.868 L 6.553 7.856 L 6.525 7.846 L 6.442 7.813 L 6.529 7.847 M 6.416 7.802 L 6.415 7.802 M 6.61 7.26 L 6.63 7.263 L 6.672 7.285 L 6.743 7.34 L 6.782 7.375 L 6.832 7.449 L 6.852 7.485 L 6.863 7.559 L 6.865 7.595 L 6.838 7.668 L 6.753 7.773 L 6.743 7.783 L 6.776 7.734 L 6.78 7.712 L 6.772 7.705 L 6.747 7.694 L 6.723 7.691 L 6.666 7.688 L 6.624 7.688 L 6.522 7.682 L 6.476 7.671 L 6.461 7.659 L 6.439 7.632 L 6.433 7.611 L 6.426 7.563 L 6.426 7.53 L 6.408 7.417 L 6.38 7.371 L 6.363 7.371 L 6.357 7.374 L 6.387 7.343 L 6.458 7.297 L 6.49 7.281 L 6.542 7.265 L 6.567 7.259 M 7.138 7.715 L 7.141 7.714 L 7.181 7.698 L 7.231 7.695 M 6.299 7.511 L 6.299 7.563 L 6.307 7.656 L 6.318 7.696 L 6.301 7.666 L 6.29 7.56 L 6.292 7.507 L 6.309 7.468 M 5.7 7.688 L 5.685 7.688 L 5.761 7.668 M 5.79 7.658 L 5.771 7.664 L 5.814 7.637 M 5.889 7.374 L 5.892 7.385 L 5.89 7.387 L 5.874 7.407 L 5.864 7.424 L 5.814 7.482 L 5.781 7.505 L 5.77 7.504 L 5.69 7.498 L 5.652 7.503 L 5.639 7.51 L 5.617 7.527 L 5.611 7.54 L 5.603 7.571 L 5.603 7.593 L 5.612 7.643 L 5.626 7.659 L 5.612 7.651 L 5.578 7.628 L 5.509 7.562 L 5.486 7.537 L 5.455 7.495 L 5.443 7.476 L 5.433 7.443 L 5.43 7.426 L 5.44 7.394 L 5.475 7.341 L 5.505 7.305 L 5.512 7.302 L 5.508 7.308 L 5.502 7.325 L 5.505 7.333 L 5.515 7.347 L 5.526 7.353 L 5.583 7.371 L 5.627 7.371 L 5.75 7.353 L 5.814 7.325 L 5.824 7.308 L 5.826 7.293 M 3.323 7.037 L 3.323 7.055 L 3.337 7.088 L 3.361 7.1 L 3.415 7.118 L 3.45 7.118 L 3.539 7.1 L 3.577 7.072 L 3.577 7.055 L 3.539 7.01 L 3.485 6.991 L 3.503 6.991 L 3.588 7.012 L 3.627 7.025 L 3.687 7.071 L 3.713 7.098 L 3.746 7.17 L 3.767 7.308 L 3.767 7.347 L 3.753 7.415 L 3.743 7.447 L 3.742 7.449 L 3.736 7.435 L 3.608 7.435 L 3.587 7.448 L 3.58 7.468 L 3.581 7.48 L 3.551 7.524 L 3.503 7.557 L 3.47 7.57 L 3.425 7.588 L 3.413 7.595 L 3.395 7.606 L 3.396 7.609 L 3.406 7.614 L 3.422 7.616 L 3.46 7.619 L 3.49 7.62 L 3.608 7.595 L 3.645 7.575 L 3.632 7.586 L 3.581 7.611 L 3.554 7.621 L 3.497 7.628 L 3.468 7.629 L 3.409 7.618 L 3.379 7.61 L 3.321 7.579 L 3.292 7.561 L 3.238 7.509 L 3.212 7.48 L 3.175 7.42 L 3.159 7.39 L 3.14 7.33 L 3.134 7.3 L 3.133 7.243 L 3.135 7.216 L 3.152 7.164 L 3.162 7.138 L 3.194 7.094 L 3.212 7.073 L 3.26 7.039 L 3.284 7.024 L 3.345 7.004 L 3.45 6.991 L 3.361 7.01 M 5.84 7.614 L 5.832 7.621 L 5.843 7.609 M 7.955 6.948 L 7.995 6.961 L 8.055 7.008 L 8.082 7.034 L 8.086 7.043 L 8.084 7.041 L 8.018 7.01 L 7.972 7.012 L 7.952 7.021 L 7.917 7.046 L 7.91 7.064 L 7.904 7.102 L 7.917 7.124 L 7.961 7.155 L 7.997 7.157 L 8.013 7.147 L 8.057 7.155 L 8.077 7.193 L 8.08 7.225 L 8.083 7.272 L 8.084 7.285 L 8.088 7.305 L 8.091 7.305 L 8.096 7.298 L 8.1 7.284 L 8.11 7.25 L 8.117 7.222 L 8.12 7.135 L 8.135 7.248 L 8.135 7.285 L 8.12 7.354 L 8.111 7.388 L 8.079 7.445 L 8.061 7.473 L 8.017 7.518 L 7.994 7.538 L 7.94 7.569 L 7.913 7.582 L 7.855 7.595 L 7.826 7.6 L 7.766 7.595 L 7.737 7.591 L 7.681 7.566 L 7.653 7.55 L 7.604 7.503 L 7.576 7.473 L 7.537 7.408 L 7.52 7.376 L 7.5 7.31 L 7.493 7.277 L 7.492 7.213 L 7.494 7.182 L 7.511 7.124 L 7.521 7.095 L 7.542 7.063 L 7.542 7.064 L 7.53 7.11 L 7.541 7.129 L 7.554 7.143 L 7.565 7.144 L 7.589 7.144 L 7.604 7.14 L 7.668 7.108 L 7.704 7.076 L 7.774 6.988 L 7.78 6.965 L 7.778 6.957 L 7.769 6.943 L 7.758 6.939 L 7.706 6.943 L 7.707 6.943 L 7.814 6.928 L 7.868 6.928 M 8.515 6.738 L 8.561 6.783 L 8.627 6.801 L 8.67 6.801 L 8.791 6.82 L 8.854 6.848 L 8.864 6.866 L 8.91 6.901 L 8.947 6.904 L 8.963 6.894 L 9.007 6.901 L 9.027 6.94 L 9.03 6.972 L 9.033 7.02 L 9.034 7.034 L 9.037 7.054 L 9.04 7.054 L 9.045 7.048 L 9.049 7.034 L 9.059 7 L 9.066 6.972 L 9.064 6.865 L 9.061 6.855 L 9.066 6.867 L 9.085 7.032 L 9.085 7.102 L 9.051 7.212 L 8.945 7.336 L 8.905 7.364 L 8.842 7.399 L 8.812 7.414 L 8.755 7.425 L 8.726 7.427 L 8.66 7.414 L 8.624 7.405 L 8.533 7.37 L 8.489 7.352 L 8.425 7.3 L 8.397 7.271 L 8.362 7.202 L 8.347 7.166 L 8.339 7.088 L 8.337 7.049 L 8.353 6.97 L 8.364 6.931 L 8.403 6.858 L 8.424 6.823 L 8.483 6.763 L 8.515 6.737 L 8.515 6.736 M 4.314 6.608 L 4.351 6.622 L 4.414 6.67 L 4.443 6.697 L 4.487 6.763 L 4.506 6.798 L 4.526 6.876 L 4.534 6.915 L 4.528 6.995 L 4.521 7.034 L 4.483 7.11 L 4.386 7.209 L 4.346 7.237 L 4.292 7.272 L 4.266 7.287 L 4.224 7.297 L 4.203 7.299 L 4.152 7.286 L 4.123 7.278 L 4.041 7.245 L 4.007 7.231 L 3.951 7.191 L 3.926 7.17 L 3.888 7.118 L 3.871 7.091 L 3.851 7.032 L 3.843 7.002 L 3.841 6.939 L 3.842 6.907 L 3.857 6.844 L 3.867 6.813 L 3.899 6.756 L 3.917 6.727 L 3.967 6.679 L 4.06 6.619 L 4.107 6.598 L 4.142 6.593 L 4.142 6.594 L 4.107 6.634 L 4.098 6.663 L 4.096 6.703 L 4.109 6.716 L 4.145 6.738 L 4.173 6.738 L 4.243 6.708 L 4.273 6.665 L 4.273 6.638 L 4.256 6.591 M 5.588 7.262 L 5.623 7.249 L 5.69 7.247 M 5.151 6.265 L 5.195 6.277 L 5.277 6.33 L 5.372 6.437 L 5.353 6.433 L 5.342 6.451 L 5.32 6.501 L 5.307 6.551 L 5.293 6.605 L 5.284 6.638 L 5.268 6.71 L 5.258 6.754 L 5.245 6.852 L 5.251 6.881 L 5.27 6.924 L 5.287 6.926 L 5.29 6.924 L 5.286 6.927 L 5.262 6.942 L 5.201 6.962 L 5.084 6.979 L 5.036 6.983 L 4.963 6.983 L 4.929 6.98 L 4.875 6.964 L 4.851 6.954 L 4.808 6.919 L 4.788 6.898 L 4.747 6.84 L 4.715 6.792 L 4.685 6.696 L 4.683 6.691 L 4.701 6.684 L 4.717 6.67 L 4.754 6.637 L 4.78 6.611 L 5.033 6.358 L 5.091 6.296 L 5.113 6.266 L 5.114 6.26 M 7.285 6.431 L 7.312 6.517 L 7.312 6.544 L 7.284 6.607 L 7.266 6.639 L 7.212 6.7 L 7.184 6.729 L 7.121 6.772 L 7.031 6.801 L 7.008 6.801 L 6.984 6.791 L 6.993 6.782 L 7.018 6.753 L 7.034 6.729 L 7.047 6.687 L 7.028 6.686 L 7.005 6.701 L 6.974 6.712 L 6.96 6.707 L 6.957 6.699 L 6.95 6.678 L 6.95 6.661 L 6.953 6.624 L 6.957 6.599 L 6.993 6.513 L 7.032 6.48 L 7.055 6.477 L 7.104 6.48 L 7.128 6.495 L 7.177 6.534 L 7.198 6.567 L 7.246 6.612 L 7.274 6.609 L 7.283 6.594 L 7.298 6.557 L 7.299 6.529 L 7.295 6.468 L 7.284 6.432 L 7.276 6.418 M 5.446 6.563 L 5.453 6.61 L 5.455 6.633 L 5.442 6.685 L 5.42 6.737 L 5.445 6.617 L 5.438 6.542 M 5.815 6.706 L 5.88 6.732 L 5.911 6.736 L 5.91 6.736 L 5.876 6.734 L 5.815 6.711 L 5.786 6.696 L 5.754 6.646 L 5.786 6.691 M 8.892 6.694 L 8.938 6.707 L 8.969 6.73 L 8.93 6.713 L 8.905 6.705 L 8.793 6.68 L 8.735 6.677 L 8.715 6.677 L 8.726 6.675 L 8.791 6.675 M 6.846 6.668 L 6.863 6.691 L 6.852 6.677 L 6.845 6.667 M 6.021 6.453 L 6.053 6.492 L 6.066 6.513 L 6.076 6.568 L 6.063 6.659 L 6.054 6.686 L 6.046 6.691 L 6.046 6.682 L 6.014 6.629 L 5.966 6.592 L 5.935 6.58 L 5.878 6.554 L 5.861 6.54 L 5.861 6.534 L 5.871 6.52 L 5.885 6.512 L 5.922 6.494 L 5.951 6.482 L 6.019 6.453 L 6.021 6.453 M 6.782 6.522 L 6.791 6.557 L 6.815 6.618 L 6.808 6.607 L 6.789 6.574 L 6.779 6.52 L 6.777 6.494 L 6.787 6.471 M 4.853 6.346 L 4.81 6.389 L 4.728 6.479 L 4.699 6.523 L 4.692 6.534 L 4.697 6.514 L 4.751 6.431 L 4.877 6.32 L 4.922 6.289 L 4.933 6.287 M 5.961 6.427 L 5.939 6.426 L 5.836 6.439 L 5.784 6.465 L 5.767 6.484 L 5.755 6.504 L 5.764 6.487 L 5.779 6.466 L 5.825 6.439 L 5.916 6.422 L 5.947 6.422 M 8.753 5.858 L 8.819 5.886 L 8.917 5.968 L 8.952 6.006 L 8.995 6.092 L 9.012 6.136 L 9.017 6.221 L 9.016 6.263 L 8.985 6.337 L 8.9 6.419 L 8.865 6.438 L 8.777 6.463 L 8.731 6.473 L 8.638 6.482 L 8.591 6.485 L 8.512 6.477 L 8.476 6.47 L 8.431 6.442 L 8.41 6.422 L 8.391 6.346 L 8.385 6.304 L 8.394 6.206 L 8.401 6.157 L 8.434 6.064 L 8.505 5.956 L 8.542 5.923 L 8.614 5.881 L 8.65 5.864 L 8.719 5.857 M 5.388 6.454 L 5.389 6.457 L 5.387 6.454 M 3.7 5.817 L 3.708 5.822 L 3.707 5.824 L 3.71 5.826 L 3.685 6.083 L 3.678 6.173 L 3.677 6.206 L 3.679 6.264 L 3.684 6.282 L 3.695 6.311 L 3.705 6.316 L 3.715 6.318 L 3.7 6.329 L 3.608 6.358 L 3.585 6.358 L 3.518 6.329 L 3.485 6.311 L 3.464 6.294 L 3.497 6.275 L 3.487 6.242 L 3.466 6.216 L 3.446 6.171 L 3.446 6.137 L 3.454 6.118 L 3.473 6.078 L 3.49 6.055 L 3.529 6.006 L 3.556 5.978 L 3.707 5.824 L 3.66 5.807 L 3.608 5.807 L 3.515 5.819 L 3.517 5.817 L 3.608 5.788 L 3.636 5.788 M 7.692 6.275 L 7.806 6.313 L 7.854 6.314 L 7.918 6.306 L 7.865 6.318 L 7.82 6.321 L 7.717 6.293 L 7.677 6.278 L 7.642 6.253 M 11.18 6.288 L 11.179 6.288 L 11.182 6.288 M 11.23 6.27 L 11.213 6.282 L 11.211 6.282 L 11.225 6.273 L 11.256 6.25 M 7.132 6.263 L 7.152 6.276 L 7.146 6.273 L 7.081 6.256 L 7.045 6.259 L 6.972 6.273 L 6.964 6.278 L 6.975 6.27 L 7.055 6.232 L 7.077 6.232 M 10.983 6.18 L 11.013 6.202 L 11.08 6.251 L 11.105 6.266 L 11.121 6.274 L 11.12 6.273 L 11.097 6.263 L 11.032 6.227 L 11.003 6.209 L 10.963 6.166 L 10.954 6.155 M 5.318 5.598 L 5.31 5.64 L 5.328 5.659 L 5.35 5.664 L 5.405 5.671 L 5.446 5.671 L 5.54 5.668 L 5.603 5.662 L 5.702 5.666 L 5.72 5.672 L 5.723 5.677 L 5.724 5.686 L 5.719 5.693 L 5.72 5.757 L 5.754 5.82 L 5.782 5.852 L 5.842 5.917 L 5.861 5.936 L 5.887 5.959 L 5.885 5.969 L 5.849 6.043 L 5.829 6.078 L 5.774 6.139 L 5.743 6.167 L 5.669 6.206 L 5.54 6.232 L 5.475 6.232 L 5.372 6.194 L 5.325 6.168 L 5.249 6.074 L 5.222 6.033 L 5.191 5.954 L 5.178 5.916 L 5.172 5.842 L 5.172 5.807 L 5.19 5.742 L 5.202 5.711 L 5.241 5.657 L 5.263 5.632 L 5.32 5.593 L 5.322 5.592 M 7.82 5.9 L 7.849 5.918 L 7.901 5.96 L 7.918 5.987 L 7.946 6.045 L 7.946 6.077 L 7.93 6.112 L 7.904 6.133 L 7.886 6.143 L 7.798 6.177 L 7.74 6.183 L 7.581 6.201 L 7.554 6.16 L 7.538 6.133 L 7.528 6.085 L 7.53 6.087 L 7.571 6.105 L 7.597 6.105 L 7.664 6.087 L 7.692 6.059 L 7.692 6.042 L 7.664 5.997 L 7.623 5.978 L 7.597 5.978 L 7.53 5.997 L 7.531 5.989 L 7.538 5.961 L 7.567 5.91 L 7.572 5.903 L 7.571 5.905 L 7.574 5.909 L 7.586 5.911 L 7.599 5.908 L 7.63 5.9 L 7.653 5.892 L 7.754 5.883 M 3.893 6.073 L 3.893 6.101 L 3.864 6.164 L 3.855 6.182 L 3.858 6.17 L 3.875 6.1 L 3.876 6.063 L 3.871 6.002 M 3.342 6.066 L 3.349 6.141 L 3.359 6.173 L 3.353 6.163 L 3.323 6.073 L 3.323 6.045 L 3.353 5.982 L 3.356 5.975 M 11.247 5.893 L 11.278 5.912 L 11.287 5.934 L 11.301 5.985 L 11.301 6.021 L 11.287 6.056 L 11.264 6.076 L 11.246 6.083 L 11.159 6.106 L 11.096 6.107 L 10.984 6.11 L 10.943 6.116 L 10.939 6.121 L 10.929 6.094 L 10.923 6.068 L 10.925 6.016 L 10.929 5.99 L 10.949 5.941 L 10.954 5.93 L 10.945 5.966 L 10.96 5.99 L 11.018 6.004 L 11.076 5.979 L 11.107 5.95 L 11.185 5.898 L 11.23 5.887 M 9.358 5.379 L 9.339 5.415 L 9.339 5.44 L 9.352 5.495 L 9.375 5.522 L 9.392 5.531 L 9.432 5.545 L 9.457 5.547 L 9.511 5.548 L 9.544 5.543 L 9.563 5.555 L 9.573 5.576 L 9.578 5.593 L 9.592 5.672 L 9.592 5.725 L 9.597 5.817 L 9.606 5.848 L 9.628 5.899 L 9.644 5.908 L 9.675 5.914 L 9.692 5.899 L 9.696 5.895 L 9.694 5.899 L 9.656 5.949 L 9.634 5.973 L 9.584 6.011 L 9.561 6.025 L 9.571 5.995 L 9.556 5.972 L 9.501 5.931 L 9.447 5.915 L 9.419 5.915 L 9.311 5.883 L 9.228 5.835 L 9.194 5.804 L 9.125 5.745 L 9.098 5.726 L 9.091 5.726 L 9.083 5.736 L 9.083 5.751 L 9.088 5.788 L 9.094 5.818 L 9.156 5.929 L 9.228 5.998 L 9.269 6.019 L 9.351 6.052 L 9.389 6.059 L 9.402 6.059 L 9.399 6.06 L 9.365 6.058 L 9.295 6.038 L 9.256 6.023 L 9.192 5.981 L 9.162 5.959 L 9.116 5.905 L 9.095 5.877 L 9.068 5.815 L 9.056 5.784 L 9.047 5.719 L 9.045 5.686 L 9.056 5.622 L 9.064 5.591 L 9.093 5.534 L 9.111 5.506 L 9.161 5.458 L 9.257 5.403 L 9.311 5.383 L 9.362 5.375 M 8.009 5.852 L 8.025 5.868 L 8.043 5.916 L 8.06 6.021 L 8.043 5.918 L 8.025 5.869 L 8.011 5.854 L 8.004 5.848 M 19.068 5.614 L 19.108 5.628 L 19.126 5.636 L 19.152 5.661 L 19.163 5.675 L 19.177 5.714 L 19.184 5.788 L 19.184 5.817 L 19.177 5.863 L 19.172 5.884 L 19.152 5.916 L 19.14 5.93 L 19.108 5.949 L 19.042 5.967 L 18.999 5.973 L 18.928 5.954 L 18.896 5.94 L 18.861 5.888 L 18.86 5.886 L 18.882 5.915 L 18.899 5.915 L 18.944 5.868 L 18.963 5.797 L 18.963 5.753 L 18.944 5.648 L 18.932 5.63 L 18.926 5.628 L 18.939 5.621 L 19.042 5.61 M 4.848 5.362 L 4.906 5.375 L 4.932 5.383 L 4.968 5.407 L 4.984 5.422 L 5.004 5.464 L 5.022 5.555 L 5.027 5.6 L 5.018 5.679 L 5.012 5.717 L 4.984 5.78 L 4.967 5.81 L 4.923 5.855 L 4.899 5.876 L 4.844 5.903 L 4.816 5.913 L 4.754 5.919 L 4.723 5.919 L 4.66 5.901 L 4.629 5.89 L 4.569 5.848 L 4.555 5.836 L 4.559 5.828 L 4.557 5.802 L 4.551 5.741 L 4.542 5.693 L 4.504 5.581 L 4.471 5.535 L 4.456 5.535 L 4.44 5.539 L 4.499 5.467 L 4.539 5.424 L 4.634 5.375 L 4.808 5.358 M 6.649 5.619 L 6.631 5.641 L 6.618 5.662 L 6.588 5.738 L 6.598 5.771 L 6.618 5.778 L 6.651 5.81 L 6.654 5.841 L 6.644 5.857 L 6.632 5.888 L 6.637 5.898 L 6.646 5.908 L 6.629 5.912 L 6.599 5.916 L 6.54 5.909 L 6.512 5.903 L 6.468 5.873 L 6.447 5.852 L 6.428 5.805 L 6.423 5.781 L 6.434 5.735 L 6.442 5.712 L 6.479 5.672 L 6.56 5.628 L 6.598 5.616 M 11.012 5.859 L 11.014 5.857 L 11.017 5.855 M 6.753 5.852 L 6.751 5.854 L 6.754 5.85 M 6.762 5.83 L 6.755 5.847 L 6.762 5.823 L 6.767 5.792 M 11.235 5.819 L 11.124 5.813 L 11.056 5.832 L 11.061 5.829 L 11.085 5.817 L 11.142 5.807 M 3.725 5.831 L 3.71 5.826 L 3.71 5.823 M 6.756 5.678 L 6.774 5.733 L 6.77 5.765 L 6.766 5.739 L 6.753 5.681 L 6.742 5.664 M 5.697 5.561 L 5.742 5.572 L 5.808 5.616 L 5.838 5.64 L 5.876 5.704 L 5.892 5.737 L 5.895 5.761 L 5.89 5.741 L 5.847 5.662 L 5.82 5.635 L 5.704 5.569 L 5.648 5.554 M 13.983 5.105 L 14.072 5.129 L 14.126 5.148 L 14.165 5.18 L 14.124 5.155 L 14.087 5.155 L 14.018 5.159 L 13.994 5.167 L 13.991 5.177 L 13.994 5.202 L 14.005 5.222 L 14.033 5.27 L 14.057 5.306 L 14.123 5.429 L 14.148 5.497 L 14.145 5.512 L 14.143 5.614 L 14.157 5.65 L 14.171 5.657 L 14.203 5.664 L 14.221 5.659 L 14.249 5.647 L 14.238 5.657 L 14.137 5.705 L 14.083 5.726 L 13.965 5.748 L 13.907 5.755 L 13.802 5.747 L 13.753 5.738 L 13.686 5.695 L 13.658 5.667 L 13.631 5.587 L 13.621 5.545 L 13.631 5.449 L 13.639 5.4 L 13.681 5.305 L 13.779 5.179 L 13.803 5.158 L 13.847 5.129 L 13.868 5.116 L 13.911 5.104 L 13.933 5.1 M 20.14 5.287 L 20.166 5.308 L 20.202 5.391 L 20.216 5.529 L 20.212 5.56 L 20.199 5.608 L 20.191 5.63 L 20.166 5.662 L 20.151 5.676 L 20.112 5.695 L 20.033 5.712 L 19.988 5.717 L 19.897 5.698 L 19.877 5.664 L 19.858 5.641 L 19.832 5.593 L 19.83 5.562 L 19.838 5.544 L 19.857 5.508 L 19.876 5.486 L 19.92 5.441 L 19.951 5.414 L 20.051 5.312 L 20.081 5.263 L 20.078 5.254 M 12.246 5.544 L 12.279 5.569 L 12.342 5.617 L 12.365 5.631 L 12.405 5.654 L 12.423 5.655 L 12.452 5.653 L 12.424 5.655 L 12.407 5.655 L 12.369 5.635 L 12.348 5.622 L 12.29 5.579 L 12.247 5.549 L 12.244 5.541 M 4.428 5.654 L 4.421 5.639 L 4.421 5.638 M 17.942 5.603 L 17.878 5.638 L 17.848 5.651 L 17.815 5.654 L 17.841 5.65 L 17.874 5.636 L 17.944 5.602 M 12.459 5.652 L 12.478 5.644 M 12.482 5.642 L 12.512 5.628 M 17.6 5.564 L 17.643 5.567 L 17.654 5.555 L 17.684 5.548 L 17.696 5.567 L 17.696 5.588 L 17.705 5.631 L 17.714 5.638 L 17.697 5.632 L 17.664 5.616 L 17.584 5.563 L 17.545 5.536 L 17.544 5.536 M 19.79 5.636 L 19.791 5.636 L 19.769 5.61 M 9.709 5.572 L 9.725 5.607 L 9.731 5.635 L 9.714 5.595 L 9.684 5.534 M 12.656 5.51 L 12.572 5.596 L 12.656 5.51 M 19.8 5.355 L 19.81 5.381 L 19.815 5.453 L 19.797 5.496 L 19.78 5.507 L 19.751 5.559 L 19.761 5.59 L 19.746 5.553 L 19.739 5.525 L 19.741 5.468 L 19.746 5.439 L 19.769 5.386 L 19.782 5.361 L 19.816 5.321 M 14.329 5.503 L 14.327 5.527 L 14.32 5.546 L 14.327 5.455 M 16.255 5.117 L 16.294 5.131 L 16.308 5.141 L 16.289 5.139 L 16.282 5.146 L 16.268 5.165 L 16.264 5.183 L 16.256 5.224 L 16.254 5.253 L 16.255 5.343 L 16.269 5.369 L 16.305 5.408 L 16.336 5.408 L 16.401 5.384 L 16.4 5.405 L 16.393 5.425 L 16.368 5.457 L 16.354 5.472 L 16.316 5.497 L 16.275 5.519 L 16.176 5.537 L 16.126 5.541 L 16.035 5.521 L 16.015 5.514 L 16.006 5.508 L 16.014 5.504 L 16.044 5.481 L 16.055 5.46 L 16.075 5.412 L 16.078 5.385 L 16.079 5.329 L 16.069 5.303 L 16.029 5.243 L 15.996 5.219 L 15.98 5.219 L 15.941 5.253 L 15.927 5.302 L 15.925 5.332 L 15.925 5.34 L 15.923 5.32 L 15.923 5.281 L 15.946 5.216 L 15.961 5.186 L 16.013 5.141 L 16.119 5.105 L 16.169 5.099 M 10.173 4.872 L 10.214 4.885 L 10.3 4.923 L 10.399 4.98 L 10.424 5.001 L 10.456 5.075 L 10.469 5.117 L 10.476 5.213 L 10.476 5.262 L 10.458 5.354 L 10.402 5.459 L 10.376 5.486 L 10.292 5.517 L 10.247 5.529 L 10.146 5.532 L 10.124 5.531 L 10.15 5.53 L 10.211 5.526 L 10.239 5.52 L 10.245 5.517 L 10.253 5.509 L 10.25 5.505 L 10.239 5.495 L 10.225 5.49 L 10.132 5.445 L 10.068 5.405 L 10.044 5.387 L 9.882 5.31 L 9.829 5.298 L 9.811 5.298 L 9.799 5.301 L 9.788 5.238 L 9.785 5.203 L 9.794 5.132 L 9.801 5.098 L 9.829 5.034 L 9.845 5.003 L 9.889 4.95 L 9.912 4.925 L 9.968 4.889 L 9.998 4.874 L 10.065 4.861 M 10.001 5.505 L 10.097 5.529 L 10.094 5.529 L 9.997 5.504 L 9.951 5.488 L 9.881 5.436 L 9.953 5.487 M 17.801 4.968 L 17.775 4.968 L 17.7 4.974 L 17.674 4.984 L 17.633 5.009 L 17.633 5.029 L 17.677 5.074 L 17.742 5.092 L 17.784 5.092 L 17.912 5.122 L 17.965 5.168 L 17.974 5.201 L 17.982 5.269 L 17.967 5.307 L 17.925 5.385 L 17.885 5.423 L 17.816 5.48 L 17.778 5.502 L 17.761 5.506 L 17.729 5.508 L 17.713 5.502 L 17.68 5.484 L 17.661 5.469 L 17.597 5.381 L 17.57 5.307 L 17.57 5.274 L 17.551 5.19 L 17.523 5.155 L 17.506 5.155 L 17.477 5.168 L 17.461 5.187 L 17.456 5.202 L 17.442 5.269 L 17.444 5.293 L 17.44 5.258 L 17.454 5.161 L 17.519 5.041 L 17.541 5.019 L 17.615 4.989 L 17.654 4.977 L 17.748 4.968 L 17.796 4.967 M 12.495 5.11 L 12.603 5.158 L 12.635 5.185 L 12.673 5.262 L 12.688 5.301 L 12.69 5.389 L 12.689 5.417 L 12.687 5.39 L 12.682 5.326 L 12.678 5.303 L 12.675 5.301 L 12.669 5.303 L 12.665 5.314 L 12.656 5.342 L 12.65 5.365 L 12.592 5.446 L 12.526 5.472 L 12.483 5.469 L 12.312 5.461 L 12.24 5.465 L 12.224 5.473 L 12.216 5.482 L 12.204 5.457 L 12.188 5.409 L 12.193 5.305 L 12.201 5.255 L 12.249 5.172 L 12.264 5.153 L 12.3 5.126 L 12.366 5.103 L 12.406 5.097 M 9.631 5.452 L 9.645 5.472 L 9.618 5.441 M 14.325 5.407 L 14.325 5.423 L 14.314 5.381 M 8.987 5.328 L 8.969 5.352 L 8.919 5.386 L 8.841 5.403 L 8.94 5.37 L 8.995 5.314 M 8.822 4.857 L 8.887 4.889 L 8.917 4.907 L 8.964 4.958 L 8.97 4.965 L 8.948 4.965 L 8.918 4.986 L 8.918 5.015 L 8.93 5.033 L 8.935 5.072 L 8.926 5.106 L 8.917 5.127 L 8.867 5.213 L 8.828 5.255 L 8.698 5.393 L 8.696 5.393 L 8.658 5.384 L 8.606 5.36 L 8.583 5.345 L 8.586 5.343 L 8.605 5.329 L 8.614 5.315 L 8.63 5.284 L 8.636 5.261 L 8.647 5.213 L 8.65 5.184 L 8.656 5.053 L 8.645 4.975 L 8.658 4.925 L 8.687 4.922 L 8.711 4.937 L 8.757 4.953 L 8.754 4.93 L 8.737 4.901 L 8.703 4.873 L 8.676 4.871 L 8.662 4.877 L 8.6 4.916 L 8.572 4.953 L 8.525 5.027 L 8.532 5.008 L 8.562 4.957 L 8.579 4.933 L 8.621 4.894 L 8.643 4.877 L 8.696 4.856 L 8.783 4.851 M 13.226 5.343 L 13.177 5.35 L 13.105 5.338 L 13.182 5.34 L 13.263 5.336 M 17.232 5.233 L 17.221 5.256 L 17.191 5.296 L 17.131 5.343 L 17.217 5.257 L 17.239 5.21 M 13.192 4.778 L 13.167 4.787 L 13.165 4.796 L 13.167 4.819 L 13.178 4.839 L 13.206 4.883 L 13.229 4.916 L 13.304 5.046 L 13.324 5.115 L 13.318 5.142 L 13.296 5.193 L 13.269 5.213 L 13.203 5.253 L 13.153 5.272 L 13.027 5.317 L 12.96 5.269 L 12.939 5.248 L 12.906 5.177 L 12.884 5.06 L 12.884 5.015 L 12.906 4.939 L 12.92 4.903 L 12.97 4.849 L 12.998 4.825 L 13.074 4.794 L 13.215 4.775 L 13.262 4.775 M 9.036 5.181 L 9.026 5.244 L 9.018 5.276 L 9.002 5.303 L 9.016 5.266 L 9.036 5.181 M 14.253 5.261 L 14.257 5.267 L 14.25 5.257 M 13.438 5.248 L 13.428 5.255 L 13.445 5.234 M 17.01 4.796 L 17.095 4.827 L 17.145 4.85 L 17.211 4.932 L 17.238 4.977 L 17.258 5.082 L 17.262 5.134 L 17.253 5.163 L 17.253 5.143 L 17.25 5.072 L 17.244 5.046 L 17.236 5.044 L 17.217 5.048 L 17.201 5.059 L 17.164 5.089 L 17.137 5.114 L 17.04 5.187 L 16.983 5.219 L 16.968 5.219 L 16.897 5.187 L 16.831 5.143 L 16.799 5.114 L 16.737 5.06 L 16.71 5.043 L 16.702 5.042 L 16.695 5.045 L 16.717 4.985 L 16.81 4.87 L 16.836 4.846 L 16.881 4.815 L 16.902 4.802 L 16.943 4.791 L 16.964 4.787 M 15.402 4.917 L 15.432 4.929 L 15.48 4.973 L 15.512 5.061 L 15.512 5.102 L 15.471 5.16 L 15.447 5.185 L 15.378 5.207 L 15.343 5.213 L 15.274 5.195 L 15.243 5.181 L 15.201 5.117 L 15.19 5.086 L 15.189 5.022 L 15.218 4.949 L 15.243 4.924 L 15.305 4.906 L 15.338 4.901 M 7.412 4.992 L 7.427 5.075 L 7.419 5.117 L 7.376 5.171 L 7.352 5.193 L 7.295 5.208 L 7.266 5.211 L 7.219 5.185 L 7.199 5.167 L 7.186 5.096 L 7.186 5.051 L 7.217 4.997 L 7.317 4.965 L 7.362 4.965 M 16.724 5.21 L 16.702 5.175 L 16.696 5.143 M 5.755 5.143 L 5.803 5.149 L 5.811 5.146 L 5.79 5.155 L 5.781 5.155 L 5.752 5.143 L 5.751 5.143 M 5.873 4.497 L 5.91 4.52 L 5.983 4.589 L 6.019 4.625 L 6.073 4.703 L 6.109 4.807 L 6.109 4.834 L 6.073 4.907 L 6.051 4.945 L 5.987 5.022 L 5.978 5.032 L 5.982 5.013 L 5.969 5.001 L 5.935 4.979 L 5.902 4.971 L 5.825 4.956 L 5.772 4.951 L 5.697 4.939 L 5.659 4.924 L 5.645 4.913 L 5.603 4.863 L 5.603 4.825 L 5.587 4.751 L 5.564 4.721 L 5.548 4.716 L 5.514 4.713 L 5.496 4.723 L 5.46 4.749 L 5.456 4.757 L 5.454 4.732 L 5.466 4.697 L 5.509 4.63 L 5.531 4.599 L 5.589 4.543 L 5.619 4.518 L 5.682 4.482 L 5.773 4.459 L 5.802 4.459 M 19.503 4.739 L 19.53 4.752 L 19.568 4.797 L 19.584 4.885 L 19.577 4.922 L 19.535 4.973 L 19.512 4.994 L 19.451 5.014 L 19.421 5.019 L 19.363 5.003 L 19.337 4.989 L 19.302 4.934 L 19.291 4.906 L 19.294 4.841 L 19.33 4.763 L 19.354 4.739 L 19.414 4.723 L 19.444 4.72 M 11.797 4.718 L 11.818 4.722 L 11.844 4.739 L 11.854 4.749 L 11.863 4.781 L 11.86 4.849 L 11.855 4.885 L 11.834 4.939 L 11.822 4.963 L 11.788 4.992 L 11.769 5.003 L 11.722 5.008 L 11.696 5.006 L 11.634 4.986 L 11.612 4.978 L 11.578 4.929 L 11.555 4.834 L 11.555 4.811 L 11.563 4.777 L 11.569 4.762 L 11.592 4.74 L 11.605 4.73 L 11.642 4.718 L 11.717 4.712 L 11.75 4.712 M 5.569 5.001 L 5.565 4.996 L 5.571 5.002 M 17.889 4.98 L 17.888 4.98 M 9.634 4.317 L 9.669 4.347 L 9.732 4.433 L 9.76 4.478 L 9.796 4.573 L 9.799 4.697 L 9.788 4.728 L 9.742 4.78 L 9.717 4.803 L 9.684 4.819 L 9.685 4.816 L 9.694 4.786 L 9.683 4.769 L 9.622 4.727 L 9.561 4.713 L 9.528 4.714 L 9.462 4.719 L 9.435 4.728 L 9.385 4.752 L 9.373 4.77 L 9.38 4.815 L 9.32 4.769 L 9.251 4.677 L 9.237 4.64 L 9.249 4.552 L 9.26 4.506 L 9.275 4.48 L 9.275 4.502 L 9.282 4.552 L 9.292 4.561 L 9.317 4.566 L 9.333 4.554 L 9.365 4.522 L 9.381 4.495 L 9.411 4.432 L 9.421 4.393 L 9.435 4.33 L 9.435 4.305 L 9.434 4.304 L 9.528 4.269 L 9.561 4.269 M 5.186 4.18 L 5.205 4.188 L 5.234 4.211 L 5.246 4.223 L 5.263 4.259 L 5.27 4.278 L 5.277 4.327 L 5.274 4.419 L 5.268 4.479 L 5.227 4.564 L 5.202 4.6 L 5.133 4.635 L 5.096 4.646 L 5.013 4.627 L 4.97 4.611 L 4.885 4.534 L 4.862 4.508 L 4.837 4.46 L 4.849 4.461 L 4.877 4.447 L 4.937 4.414 L 4.969 4.385 L 5.033 4.323 L 5.061 4.283 L 5.107 4.216 L 5.124 4.185 L 5.127 4.177 L 5.127 4.167 M 12.739 4.362 L 12.74 4.443 L 12.692 4.557 L 12.667 4.587 L 12.614 4.623 L 12.589 4.638 L 12.534 4.644 L 12.507 4.644 L 12.488 4.635 L 12.487 4.621 L 12.463 4.58 L 12.441 4.554 L 12.407 4.509 L 12.397 4.487 L 12.396 4.48 L 12.409 4.459 L 12.437 4.459 L 12.48 4.444 L 12.488 4.421 L 12.479 4.406 L 12.483 4.369 L 12.513 4.353 L 12.539 4.353 L 12.604 4.37 L 12.631 4.394 L 12.631 4.41 L 12.649 4.438 L 12.675 4.439 L 12.692 4.429 L 12.732 4.366 L 12.729 4.338 M 14.945 4.606 L 14.919 4.626 L 14.87 4.64 L 14.845 4.642 L 14.839 4.641 L 14.863 4.636 L 14.909 4.621 L 14.936 4.611 L 14.957 4.596 M 14.767 4.62 L 14.75 4.613 L 14.742 4.609 M 14.779 3.934 L 14.744 3.974 L 14.735 4.003 L 14.733 4.043 L 14.746 4.057 L 14.782 4.079 L 14.81 4.079 L 14.881 4.049 L 14.91 4.006 L 14.91 3.979 L 14.893 3.929 L 14.927 3.94 L 15.034 4.012 L 15.075 4.054 L 15.126 4.138 L 15.147 4.181 L 15.158 4.268 L 15.158 4.311 L 15.128 4.397 L 15.037 4.522 L 15.004 4.555 L 15.009 4.53 L 14.996 4.514 L 14.96 4.485 L 14.929 4.475 L 14.858 4.459 L 14.812 4.459 L 14.712 4.474 L 14.67 4.497 L 14.662 4.513 L 14.656 4.544 L 14.668 4.561 L 14.694 4.586 L 14.657 4.567 L 14.612 4.545 L 14.544 4.461 L 14.515 4.416 L 14.481 4.307 L 14.47 4.254 L 14.478 4.15 L 14.483 4.126 L 14.501 4.085 L 14.543 4.034 L 14.589 3.997 L 14.678 3.95 L 14.722 3.931 L 14.794 3.921 M 14.073 3.98 L 14.11 3.998 L 14.175 4.054 L 14.206 4.084 L 14.249 4.155 L 14.277 4.269 L 14.277 4.304 L 14.252 4.373 L 14.237 4.366 L 14.205 4.365 L 14.127 4.364 L 14.066 4.364 L 13.962 4.369 L 13.916 4.378 L 13.902 4.386 L 13.881 4.405 L 13.878 4.419 L 13.877 4.452 L 13.883 4.475 L 13.907 4.535 L 13.926 4.553 L 13.968 4.58 L 13.995 4.581 L 14.007 4.58 L 13.988 4.585 L 13.963 4.585 L 13.887 4.548 L 13.847 4.525 L 13.816 4.499 L 13.817 4.492 L 13.823 4.448 L 13.821 4.411 L 13.843 4.202 L 13.863 4.145 L 13.876 4.123 L 13.904 4.083 L 13.92 4.071 L 13.938 4.031 L 13.925 4.001 L 13.907 3.99 L 13.873 3.986 L 13.861 3.99 L 13.864 3.988 L 13.96 3.952 L 13.997 3.952 M 18.721 3.972 L 18.76 3.986 L 18.819 4.032 L 18.846 4.059 L 18.879 4.131 L 18.899 4.269 L 18.899 4.314 L 18.877 4.407 L 18.823 4.509 L 18.799 4.534 L 18.721 4.564 L 18.678 4.576 L 18.583 4.583 L 18.571 4.583 L 18.667 4.571 L 18.705 4.55 L 18.705 4.538 L 18.693 4.513 L 18.667 4.502 L 18.602 4.484 L 18.551 4.482 L 18.439 4.492 L 18.393 4.513 L 18.393 4.529 L 18.408 4.554 L 18.403 4.552 L 18.342 4.509 L 18.321 4.488 L 18.291 4.413 L 18.296 4.423 L 18.304 4.428 L 18.32 4.433 L 18.329 4.427 L 18.374 4.364 L 18.393 4.302 L 18.393 4.269 L 18.374 4.173 L 18.346 4.121 L 18.329 4.11 L 18.304 4.109 L 18.29 4.124 L 18.286 4.133 L 18.286 4.131 L 18.3 4.091 L 18.346 4.032 L 18.372 4.005 L 18.393 3.996 L 18.393 4.009 L 18.41 4.038 L 18.439 4.046 L 18.507 4.059 L 18.551 4.056 L 18.667 4.035 L 18.705 4.012 L 18.705 4 L 18.693 3.976 L 18.667 3.967 L 18.602 3.952 L 18.635 3.952 M 14.087 4.556 L 14.089 4.554 M 12.328 4.413 L 12.331 4.448 L 12.347 4.517 L 12.331 4.447 L 12.328 4.413 L 12.345 4.366 M 7.064 3.744 L 7.091 3.752 L 7.14 3.782 L 7.162 3.799 L 7.198 3.846 L 7.214 3.871 L 7.236 3.935 L 7.246 4.021 L 7.242 4.019 L 7.224 4.024 L 7.205 4.038 L 7.163 4.074 L 7.131 4.104 L 7.048 4.204 L 7.034 4.236 L 7.031 4.249 L 7.03 4.273 L 7.035 4.281 L 7.069 4.319 L 7.09 4.323 L 7.131 4.321 L 7.152 4.307 L 7.191 4.27 L 7.207 4.242 L 7.23 4.186 L 7.226 4.203 L 7.196 4.262 L 7.179 4.29 L 7.136 4.333 L 7.114 4.352 L 7.061 4.376 L 7.034 4.386 L 6.974 4.391 L 6.944 4.391 L 6.881 4.376 L 6.848 4.366 L 6.784 4.329 L 6.752 4.308 L 6.69 4.249 L 6.649 4.205 L 6.596 4.133 L 6.573 4.1 L 6.56 4.043 L 6.558 4.015 L 6.583 3.962 L 6.663 3.876 L 6.699 3.845 L 6.771 3.798 L 6.806 3.777 L 6.876 3.751 L 6.91 3.74 L 6.975 3.733 L 7.007 3.732 M 13.737 4.104 L 13.691 4.186 L 13.673 4.233 L 13.671 4.255 L 13.67 4.299 L 13.676 4.321 L 13.691 4.366 L 13.695 4.372 L 13.681 4.355 L 13.644 4.283 L 13.644 4.254 L 13.678 4.183 L 13.699 4.147 L 13.743 4.095 M 17.282 3.865 L 17.311 3.876 L 17.354 3.91 L 17.374 3.929 L 17.4 3.976 L 17.421 4.023 L 17.415 4.132 L 17.41 4.158 L 17.389 4.207 L 17.376 4.231 L 17.341 4.271 L 17.322 4.29 L 17.275 4.316 L 17.19 4.332 L 17.159 4.332 L 17.089 4.305 L 17.055 4.288 L 17.002 4.24 L 16.983 4.217 L 16.962 4.168 L 16.954 4.143 L 16.951 4.093 L 16.953 4.043 L 17.002 3.952 L 17.033 3.912 L 17.123 3.862 L 17.147 3.853 L 17.2 3.849 M 11.019 3.731 L 11.047 3.755 L 11.098 3.812 L 11.113 3.85 L 11.134 3.931 L 11.131 3.977 L 11.138 4.083 L 11.156 4.128 L 11.168 4.136 L 11.197 4.143 L 11.212 4.13 L 11.238 4.1 L 11.228 4.129 L 11.197 4.183 L 11.178 4.209 L 11.134 4.252 L 11.109 4.271 L 11.055 4.299 L 11.027 4.311 L 10.968 4.324 L 10.937 4.328 L 10.876 4.322 L 10.845 4.317 L 10.787 4.293 L 10.757 4.278 L 10.704 4.233 L 10.669 4.197 L 10.627 4.102 L 10.611 4.051 L 10.609 4.02 L 10.612 4.053 L 10.623 4.087 L 10.636 4.118 L 10.643 4.128 L 10.659 4.142 L 10.668 4.142 L 10.693 4.127 L 10.707 4.103 L 10.713 4.086 L 10.731 4.003 L 10.731 3.95 L 10.759 3.799 L 10.803 3.731 L 10.835 3.719 L 10.95 3.707 M 12.687 4.261 L 12.693 4.272 L 12.679 4.256 M 5.087 4.157 L 5.125 4.166 L 5.12 4.168 L 5.103 4.177 L 5.087 4.189 L 5.005 4.231 L 4.957 4.235 L 4.944 4.223 L 4.901 4.22 L 4.865 4.244 L 4.851 4.259 L 4.865 4.242 L 4.88 4.223 L 4.923 4.192 L 4.945 4.179 L 4.998 4.163 L 5.026 4.157 M 12.63 4.229 L 12.584 4.213 L 12.593 4.212 M 7.249 4.091 L 7.236 4.159 L 7.24 4.137 L 7.249 4.06 M 6.287 3.765 L 6.299 3.857 L 6.299 3.891 L 6.287 3.95 L 6.279 3.978 L 6.252 4.026 L 6.223 4.071 L 6.136 4.122 L 6.089 4.14 L 5.983 4.132 L 5.957 4.126 L 5.904 4.1 L 5.878 4.086 L 5.852 4.063 L 5.858 4.066 L 5.877 4.057 L 5.912 4.031 L 5.923 4.003 L 5.937 3.938 L 5.93 3.894 L 5.927 3.828 L 5.933 3.796 L 5.94 3.786 L 5.958 3.77 L 5.972 3.766 L 6.004 3.762 L 6.025 3.765 L 6.183 3.776 L 6.25 3.772 L 6.265 3.764 L 6.28 3.746 M 5.769 3.766 L 5.751 3.827 L 5.75 3.86 L 5.754 3.929 L 5.761 3.95 L 5.759 3.947 L 5.729 3.857 L 5.729 3.834 L 5.759 3.767 L 5.778 3.741 M 18.048 3.401 L 18.134 3.439 L 18.173 3.461 L 18.226 3.523 L 18.248 3.556 L 18.26 3.627 L 18.238 3.591 L 18.197 3.572 L 18.171 3.572 L 18.104 3.591 L 18.076 3.618 L 18.076 3.636 L 18.087 3.669 L 18.104 3.681 L 18.145 3.699 L 18.171 3.699 L 18.238 3.681 L 18.25 3.669 L 18.227 3.746 L 18.202 3.788 L 18.123 3.842 L 18.081 3.864 L 17.987 3.878 L 17.941 3.88 L 17.856 3.853 L 17.816 3.834 L 17.761 3.766 L 17.735 3.717 L 17.733 3.694 L 17.742 3.699 L 17.76 3.699 L 17.805 3.682 L 17.823 3.657 L 17.823 3.641 L 17.834 3.566 L 17.849 3.499 L 17.86 3.467 L 17.875 3.411 L 17.995 3.394 M 11.02 3.644 L 11.048 3.65 L 11.098 3.672 L 11.122 3.686 L 11.163 3.724 L 11.182 3.744 L 11.212 3.795 L 11.225 3.822 L 11.24 3.876 L 11.232 3.85 L 11.206 3.809 L 11.148 3.73 L 11.113 3.701 L 11.04 3.653 L 11.002 3.648 L 10.848 3.652 L 10.866 3.646 L 10.931 3.638 L 10.962 3.636 M 9.478 3.62 L 9.506 3.643 L 9.554 3.679 L 9.526 3.734 L 9.501 3.764 L 9.449 3.8 L 9.423 3.815 L 9.368 3.821 L 9.341 3.82 L 9.287 3.796 L 9.26 3.78 L 9.207 3.726 L 9.195 3.71 L 9.207 3.725 L 9.257 3.772 L 9.284 3.784 L 9.335 3.796 L 9.352 3.785 L 9.378 3.744 L 9.363 3.713 L 9.339 3.699 L 9.295 3.652 L 9.307 3.623 L 9.335 3.606 L 9.415 3.599 M 12.694 3.549 L 12.694 3.565 L 12.712 3.593 L 12.74 3.603 L 12.808 3.62 L 12.851 3.62 L 12.953 3.603 L 12.955 3.602 L 12.979 3.668 L 12.979 3.709 L 12.939 3.767 L 12.915 3.792 L 12.846 3.814 L 12.811 3.82 L 12.742 3.802 L 12.71 3.788 L 12.668 3.724 L 12.657 3.693 L 12.656 3.629 L 12.685 3.556 L 12.71 3.531 L 12.73 3.525 M 10.636 3.812 L 10.64 3.798 L 10.644 3.795 M 15.893 3.727 L 15.809 3.753 L 15.766 3.762 L 15.718 3.756 L 15.78 3.758 L 15.905 3.719 M 15.78 3.077 L 15.832 3.086 L 15.929 3.138 L 15.983 3.197 L 15.979 3.199 L 15.949 3.23 L 15.939 3.264 L 15.923 3.346 L 15.923 3.405 L 15.916 3.507 L 15.903 3.562 L 15.892 3.584 L 15.866 3.625 L 15.848 3.642 L 15.808 3.672 L 15.781 3.685 L 15.652 3.747 L 15.625 3.741 L 15.528 3.694 L 15.495 3.675 L 15.452 3.603 L 15.434 3.563 L 15.422 3.465 L 15.42 3.415 L 15.441 3.311 L 15.509 3.172 L 15.54 3.13 L 15.629 3.086 L 15.676 3.071 M 6.252 3.689 L 6.267 3.712 L 6.268 3.713 L 6.251 3.687 M 10.722 3.707 L 10.727 3.701 L 10.735 3.697 M 15.93 3.701 L 15.925 3.705 L 15.942 3.69 M 12.16 3.08 L 12.188 3.102 L 12.188 3.116 L 12.225 3.154 L 12.28 3.172 L 12.314 3.175 L 12.401 3.177 L 12.415 3.173 L 12.425 3.203 L 12.433 3.239 L 12.438 3.313 L 12.438 3.35 L 12.423 3.422 L 12.414 3.457 L 12.378 3.521 L 12.3 3.6 L 12.255 3.632 L 12.185 3.67 L 12.152 3.685 L 12.092 3.69 L 12.063 3.688 L 12 3.659 L 11.967 3.64 L 11.887 3.576 L 11.854 3.548 L 11.808 3.486 L 11.788 3.453 L 11.766 3.384 L 11.758 3.349 L 11.758 3.278 L 11.761 3.243 L 11.781 3.175 L 11.786 3.163 L 11.791 3.163 L 11.832 3.165 L 11.865 3.165 L 11.959 3.151 L 11.998 3.129 L 11.998 3.116 L 12.026 3.08 L 12.067 3.066 L 12.093 3.066 M 6.136 3.593 L 6.183 3.612 L 6.249 3.685 L 6.223 3.659 L 6.14 3.6 L 6.084 3.581 M 16.101 3.385 L 16.104 3.431 L 16.103 3.454 L 16.084 3.503 L 16.029 3.596 L 16.001 3.64 L 15.992 3.647 L 16.019 3.609 L 16.072 3.516 L 16.084 3.467 L 16.096 3.372 M 13.831 3.203 L 13.867 3.211 L 13.909 3.249 L 13.925 3.272 L 13.929 3.338 L 13.89 3.468 L 13.87 3.512 L 13.83 3.572 L 13.809 3.598 L 13.764 3.624 L 13.741 3.632 L 13.687 3.625 L 13.659 3.618 L 13.591 3.58 L 13.556 3.558 L 13.525 3.487 L 13.515 3.449 L 13.528 3.367 L 13.54 3.327 L 13.59 3.26 L 13.699 3.203 L 13.752 3.196 M 14.851 3.029 L 14.971 3.065 L 15.014 3.087 L 15.069 3.17 L 15.09 3.214 L 15.102 3.318 L 15.103 3.37 L 15.072 3.466 L 14.978 3.57 L 14.936 3.593 L 14.87 3.619 L 14.839 3.629 L 14.789 3.629 L 14.766 3.626 L 14.722 3.599 L 14.699 3.581 L 14.65 3.525 L 14.625 3.494 L 14.589 3.418 L 14.57 3.319 L 14.586 3.149 L 14.589 3.121 L 14.63 3.077 L 14.656 3.058 L 14.728 3.035 L 14.767 3.027 M 5.927 3.601 L 5.93 3.599 L 5.939 3.596 M 9.576 3.52 L 9.587 3.551 L 9.585 3.588 L 9.582 3.569 L 9.565 3.499 M 6.078 3.579 L 6.05 3.578 L 5.997 3.579 L 6.036 3.57 M 17.819 3.446 L 17.796 3.474 L 17.725 3.575 L 17.725 3.577 L 17.725 3.576 L 17.76 3.498 L 17.783 3.462 L 17.834 3.428 M 7.606 3.536 L 7.538 3.558 L 7.503 3.565 L 7.495 3.565 L 7.611 3.533 M 7.26 3.029 L 7.287 3.044 L 7.319 3.058 L 7.342 3.063 L 7.392 3.074 L 7.423 3.077 L 7.509 3.095 L 7.551 3.115 L 7.566 3.129 L 7.592 3.163 L 7.6 3.186 L 7.613 3.238 L 7.618 3.272 L 7.62 3.358 L 7.612 3.404 L 7.602 3.422 L 7.578 3.455 L 7.56 3.468 L 7.519 3.494 L 7.491 3.505 L 7.377 3.551 L 7.319 3.527 L 7.283 3.507 L 7.216 3.444 L 7.193 3.418 L 7.162 3.373 L 7.148 3.351 L 7.135 3.306 L 7.131 3.284 L 7.135 3.233 L 7.16 3.143 L 7.172 3.108 L 7.2 3.056 L 7.215 3.033 L 7.254 3.001 L 7.255 3 M 9.46 3.418 L 9.437 3.414 L 9.451 3.414 M 12.812 3.51 L 12.731 3.525 L 12.773 3.513 L 12.805 3.508 M 7.693 3.474 L 7.676 3.487 L 7.696 3.47 M 7.785 3.233 L 7.786 3.275 L 7.768 3.349 L 7.756 3.385 L 7.715 3.446 L 7.709 3.453 L 7.729 3.42 L 7.773 3.323 L 7.779 3.27 L 7.779 3.187 M 6.439 3.41 L 6.41 3.389 M 17.375 3.265 L 17.356 3.301 L 17.318 3.346 L 17.3 3.365 L 17.266 3.375 L 17.301 3.361 L 17.32 3.342 L 17.358 3.296 L 17.375 3.265 M 6.374 3.351 L 6.366 3.342 L 6.346 3.318 M 17.253 3.01 L 17.297 3.027 L 17.364 3.075 L 17.389 3.101 L 17.399 3.137 L 17.392 3.12 L 17.38 3.104 L 17.352 3.075 L 17.331 3.059 L 17.267 3.016 L 17.255 3.015 L 17.268 3.03 L 17.27 3.091 L 17.239 3.14 L 17.211 3.161 L 17.15 3.235 L 17.14 3.289 L 17.152 3.31 L 17.177 3.342 L 17.176 3.342 L 17.127 3.288 L 17.107 3.265 L 17.085 3.218 L 17.076 3.194 L 17.074 3.151 L 17.074 3.13 L 17.087 3.092 L 17.095 3.075 L 17.121 3.046 L 17.136 3.033 L 17.171 3.016 L 17.19 3.01 L 17.231 3.009 M 10.162 2.859 L 10.203 2.885 L 10.223 2.901 L 10.253 2.94 L 10.267 2.961 L 10.283 3.009 L 10.289 3.034 L 10.289 3.087 L 10.286 3.114 L 10.267 3.167 L 10.212 3.243 L 10.189 3.266 L 10.154 3.294 L 10.137 3.306 L 10.104 3.312 L 10.086 3.313 L 10.044 3.298 L 10.02 3.287 L 9.956 3.251 L 9.918 3.228 L 9.873 3.167 L 9.871 3.163 L 9.877 3.163 L 9.891 3.152 L 9.922 3.125 L 9.944 3.102 L 10.089 3.005 L 10.193 2.987 L 10.257 2.999 L 10.271 2.976 L 10.245 2.935 L 10.217 2.906 L 10.162 2.859 M 6.677 2.952 L 6.705 2.959 L 6.753 2.986 L 6.798 3.015 L 6.849 3.102 L 6.867 3.149 L 6.866 3.167 L 6.858 3.158 L 6.831 3.146 L 6.805 3.161 L 6.769 3.206 L 6.765 3.241 L 6.775 3.256 L 6.78 3.284 L 6.769 3.297 L 6.758 3.301 L 6.7 3.308 L 6.658 3.302 L 6.569 3.284 L 6.525 3.267 L 6.44 3.228 L 6.41 3.203 L 6.351 3.156 L 6.325 3.142 L 6.318 3.142 L 6.307 3.147 L 6.315 3.112 L 6.322 3.088 L 6.349 3.044 L 6.365 3.023 L 6.406 2.989 L 6.429 2.974 L 6.485 2.952 L 6.584 2.939 L 6.618 2.939 M 6.327 3.277 L 6.321 3.266 L 6.311 3.241 L 6.311 3.24 M 7.616 2.948 L 7.663 2.964 L 7.684 2.975 L 7.716 3.013 L 7.757 3.102 L 7.759 3.106 L 7.718 3.022 L 7.686 2.983 L 7.664 2.971 L 7.618 2.951 L 7.594 2.947 M 12.237 2.96 L 12.269 2.974 L 12.322 3.018 L 12.347 3.042 L 12.35 3.047 L 12.342 3.039 L 12.237 2.966 L 12.162 2.943 L 12.123 2.944 L 12.041 2.955 L 12 2.973 L 11.915 3.017 L 11.872 3.052 L 11.833 3.084 L 11.834 3.083 L 11.855 3.054 L 11.912 3.008 L 11.941 2.987 L 12.013 2.957 L 12.134 2.939 L 12.171 2.939 M 10.813 3.066 L 10.81 3.066 L 10.726 3.039 M 11 3.044 L 10.998 3.045 L 11.004 3.042 M 10.723 3.038 L 10.722 3.038 L 10.713 3.034 M 10.919 2.58 L 10.964 2.589 L 11.031 2.64 L 11.061 2.669 L 11.091 2.752 L 11.087 2.902 L 11.078 2.934 L 11.058 2.982 L 11.047 3.003 L 11.016 3.032 L 11.016 3.033 L 11.018 3.027 L 11.021 3.01 L 11.014 3 L 10.951 2.964 L 10.886 2.962 L 10.853 2.973 L 10.791 2.985 L 10.763 2.979 L 10.754 2.968 L 10.74 2.939 L 10.736 2.914 L 10.731 2.857 L 10.731 2.817 L 10.713 2.68 L 10.7 2.648 L 10.693 2.638 L 10.68 2.626 L 10.768 2.584 L 10.824 2.57 M 9.884 2.961 L 9.853 3.021 L 9.884 2.956 L 9.975 2.874 L 9.979 2.872 M 16.66 2.961 L 16.572 3.002 L 16.559 3.001 L 16.544 2.995 L 16.572 2.99 L 16.619 2.975 L 16.646 2.964 L 16.688 2.934 M 9.498 2.259 L 9.537 2.27 L 9.606 2.305 L 9.638 2.325 L 9.69 2.376 L 9.713 2.402 L 9.747 2.463 L 9.761 2.495 L 9.775 2.563 L 9.779 2.598 L 9.77 2.669 L 9.763 2.705 L 9.732 2.775 L 9.655 2.876 L 9.611 2.92 L 9.514 2.973 L 9.465 2.993 L 9.365 2.997 L 9.315 2.994 L 9.219 2.951 L 9.173 2.923 L 9.133 2.882 L 9.145 2.889 L 9.172 2.906 L 9.184 2.909 L 9.206 2.911 L 9.214 2.906 L 9.233 2.877 L 9.237 2.849 L 9.235 2.831 L 9.217 2.755 L 9.197 2.714 L 9.152 2.635 L 9.125 2.607 L 9.069 2.559 L 9.043 2.559 L 8.99 2.571 L 8.993 2.528 L 8.998 2.496 L 9.02 2.436 L 9.033 2.408 L 9.073 2.359 L 9.095 2.334 L 9.15 2.297 L 9.179 2.28 L 9.179 2.281 L 9.175 2.296 L 9.18 2.306 L 9.218 2.339 L 9.253 2.351 L 9.332 2.369 L 9.374 2.369 L 9.483 2.351 L 9.528 2.323 L 9.528 2.306 L 9.513 2.281 L 9.489 2.267 L 9.471 2.261 L 9.388 2.243 L 9.414 2.243 M 10.606 2.807 L 10.612 2.847 L 10.628 2.927 L 10.64 2.957 L 10.623 2.913 L 10.605 2.823 L 10.6 2.78 L 10.607 2.747 M 8.122 2.31 L 8.168 2.316 L 8.255 2.358 L 8.363 2.464 L 8.366 2.469 L 8.337 2.457 L 8.319 2.468 L 8.279 2.538 L 8.262 2.616 L 8.262 2.658 L 8.268 2.735 L 8.277 2.761 L 8.3 2.802 L 8.315 2.807 L 8.344 2.809 L 8.335 2.823 L 8.258 2.884 L 8.217 2.91 L 8.129 2.935 L 8.084 2.942 L 8 2.928 L 7.96 2.916 L 7.899 2.86 L 7.87 2.823 L 7.831 2.739 L 7.814 2.696 L 7.801 2.61 L 7.797 2.568 L 7.81 2.491 L 7.861 2.4 L 7.897 2.364 L 7.984 2.323 L 8.029 2.309 M 16.644 2.282 L 16.681 2.307 L 16.753 2.379 L 16.787 2.418 L 16.838 2.504 L 16.873 2.623 L 16.873 2.654 L 16.84 2.734 L 16.819 2.775 L 16.759 2.859 L 16.727 2.899 L 16.713 2.912 L 16.719 2.883 L 16.705 2.868 L 16.67 2.838 L 16.638 2.828 L 16.567 2.813 L 16.521 2.813 L 16.422 2.828 L 16.38 2.851 L 16.372 2.866 L 16.366 2.898 L 16.378 2.914 L 16.403 2.938 L 16.367 2.921 L 16.311 2.893 L 16.237 2.803 L 16.206 2.755 L 16.182 2.643 L 16.177 2.586 L 16.207 2.477 L 16.218 2.451 L 16.25 2.404 L 16.314 2.344 L 16.353 2.316 L 16.439 2.272 L 16.539 2.243 L 16.57 2.243 M 10.001 2.86 L 10.005 2.858 M 13.82 2.1 L 13.863 2.136 L 13.921 2.208 L 13.956 2.26 L 13.996 2.348 L 14.013 2.391 L 14.013 2.407 L 14.006 2.389 L 13.992 2.381 L 13.959 2.369 L 13.934 2.369 L 13.868 2.39 L 13.833 2.421 L 13.822 2.443 L 13.805 2.492 L 13.804 2.519 L 13.807 2.577 L 13.818 2.607 L 13.841 2.654 L 13.855 2.666 L 13.884 2.684 L 13.9 2.682 L 13.897 2.686 L 13.858 2.725 L 13.768 2.775 L 13.722 2.795 L 13.627 2.807 L 13.579 2.809 L 13.491 2.783 L 13.448 2.766 L 13.378 2.702 L 13.346 2.665 L 13.3 2.589 L 13.279 2.551 L 13.255 2.476 L 13.246 2.438 L 13.243 2.367 L 13.244 2.331 L 13.262 2.267 L 13.274 2.235 L 13.31 2.18 L 13.33 2.154 L 13.384 2.113 L 13.391 2.108 L 13.391 2.116 L 13.396 2.133 L 13.405 2.141 L 13.429 2.155 L 13.445 2.161 L 13.526 2.179 L 13.577 2.179 L 13.72 2.161 L 13.758 2.148 L 13.773 2.141 L 13.797 2.125 L 13.802 2.116 L 13.802 2.091 M 15.014 2.267 L 15.071 2.29 L 15.098 2.303 L 15.143 2.345 L 15.164 2.368 L 15.195 2.422 L 15.209 2.45 L 15.222 2.51 L 15.226 2.541 L 15.219 2.6 L 15.212 2.63 L 15.181 2.683 L 15.105 2.747 L 15.071 2.765 L 15.012 2.792 L 14.962 2.807 L 14.957 2.806 L 14.925 2.795 L 14.907 2.788 L 14.863 2.771 L 14.848 2.764 L 14.825 2.738 L 14.815 2.723 L 14.8 2.681 L 14.787 2.636 L 14.784 2.526 L 14.786 2.471 L 14.813 2.371 L 14.821 2.348 L 14.843 2.314 L 14.883 2.281 L 14.918 2.268 L 14.983 2.265 M 12.261 2.124 L 12.288 2.128 L 12.345 2.16 L 12.441 2.243 L 12.481 2.283 L 12.531 2.357 L 12.551 2.394 L 12.561 2.464 L 12.562 2.498 L 12.532 2.566 L 12.444 2.666 L 12.401 2.703 L 12.324 2.75 L 12.287 2.769 L 12.219 2.781 L 12.185 2.783 L 12.123 2.762 L 12.093 2.747 L 12.034 2.69 L 11.999 2.652 L 11.958 2.557 L 11.941 2.509 L 11.937 2.409 L 11.94 2.36 L 11.971 2.273 L 12.057 2.182 L 12.1 2.158 L 12.17 2.132 L 12.203 2.122 M 8.429 2.58 L 8.435 2.623 L 8.435 2.644 L 8.417 2.69 L 8.416 2.692 L 8.427 2.621 L 8.421 2.564 M 15.908 2.12 L 15.954 2.138 L 16.014 2.2 L 16.05 2.328 L 16.05 2.36 L 16.039 2.416 L 16.031 2.443 L 16.006 2.49 L 15.978 2.533 L 15.891 2.585 L 15.845 2.604 L 15.735 2.602 L 15.68 2.593 L 15.566 2.529 L 15.538 2.508 L 15.505 2.46 L 15.492 2.435 L 15.486 2.381 L 15.486 2.353 L 15.503 2.299 L 15.514 2.272 L 15.55 2.223 L 15.569 2.199 L 15.62 2.159 L 15.647 2.141 L 15.707 2.116 L 15.739 2.106 L 15.805 2.1 M 14.016 2.504 L 13.999 2.544 L 14.016 2.486 L 14.017 2.484 M 10.164 1.596 L 10.287 1.672 L 10.319 1.703 L 10.362 1.772 L 10.381 1.806 L 10.4 1.877 L 10.405 1.903 L 10.397 1.881 L 10.369 1.863 L 10.352 1.863 L 10.307 1.881 L 10.288 1.908 L 10.288 1.926 L 10.295 1.959 L 10.307 1.971 L 10.334 1.989 L 10.352 1.989 L 10.397 1.971 L 10.405 1.958 L 10.404 1.983 L 10.4 2.018 L 10.376 2.083 L 10.362 2.115 L 10.32 2.172 L 10.296 2.198 L 10.237 2.242 L 10.205 2.262 L 10.131 2.289 L 10.003 2.306 L 9.966 2.306 L 9.901 2.298 L 9.87 2.292 L 9.817 2.272 L 9.765 2.25 L 9.691 2.165 L 9.658 2.119 L 9.619 2.036 L 9.603 1.994 L 9.597 1.92 L 9.598 1.884 L 9.625 1.817 L 9.703 1.723 L 9.752 1.68 L 9.857 1.623 L 9.91 1.599 L 10.016 1.58 L 10.068 1.575 M 11.698 2.21 L 11.629 2.241 L 11.617 2.24 L 11.609 2.237 L 11.616 2.237 L 11.634 2.231 L 11.676 2.217 L 11.704 2.206 M 11.375 2.014 L 11.39 2.055 L 11.43 2.134 L 11.466 2.16 L 11.511 2.193 L 11.475 2.174 L 11.449 2.159 L 11.413 2.119 L 11.398 2.096 L 11.38 2.045 L 11.367 1.993 L 11.375 1.95 M 12.548 1.654 L 12.594 1.673 L 12.632 1.673 L 12.776 1.692 L 12.861 1.723 L 12.892 1.744 L 12.949 1.789 L 12.963 1.815 L 12.98 1.868 L 12.97 1.896 L 12.958 1.944 L 12.963 1.962 L 12.98 1.989 L 12.998 1.989 L 13.057 1.965 L 13.084 1.926 L 13.089 1.906 L 13.087 1.915 L 13.079 1.95 L 13.042 2.013 L 12.958 2.1 L 12.924 2.127 L 12.863 2.16 L 12.834 2.172 L 12.778 2.173 L 12.751 2.17 L 12.694 2.14 L 12.666 2.12 L 12.604 2.058 L 12.572 2.022 L 12.531 1.921 L 12.516 1.758 L 12.52 1.718 L 12.534 1.662 L 12.543 1.637 L 12.544 1.637 M 11.705 1.706 L 11.729 1.726 L 11.781 1.785 L 11.805 1.815 L 11.845 1.879 L 11.871 1.958 L 11.871 1.981 L 11.844 2.041 L 11.827 2.071 L 11.802 2.105 L 11.781 2.077 L 11.755 2.068 L 11.694 2.053 L 11.65 2.053 L 11.547 2.047 L 11.508 2.034 L 11.501 2.02 L 11.498 1.987 L 11.508 1.96 L 11.536 1.898 L 11.56 1.853 L 11.591 1.788 L 11.598 1.76 L 11.595 1.752 L 11.583 1.741 L 11.57 1.741 L 11.537 1.742 L 11.512 1.747 L 11.421 1.808 L 11.482 1.734 L 11.504 1.715 L 11.555 1.689 L 11.641 1.673 L 11.657 1.673 M 13.525 2.063 L 13.609 2.053 L 13.616 2.053 M 13.099 1.845 L 13.093 1.88 L 13.099 1.84 M 10.836 1.863 L 10.759 1.873 L 10.72 1.87 L 10.699 1.856 L 10.7 1.856 L 10.714 1.858 L 10.749 1.861 L 10.774 1.861 L 10.864 1.845 M 10.705 1.558 L 10.668 1.584 L 10.668 1.606 L 10.689 1.661 L 10.719 1.697 L 10.738 1.709 L 10.771 1.754 L 10.752 1.787 L 10.723 1.806 L 10.695 1.825 L 10.69 1.832 L 10.682 1.844 L 10.683 1.845 L 10.647 1.82 L 10.635 1.809 L 10.617 1.756 L 10.605 1.662 L 10.605 1.628 L 10.65 1.582 L 10.678 1.561 L 10.721 1.552 M 11.401 1.841 L 11.407 1.824 L 11.415 1.813 M 12.931 1.555 L 12.978 1.569 L 12.999 1.578 L 13.03 1.611 L 13.067 1.685 L 13.082 1.728 L 13.068 1.689 L 13.032 1.62 L 13.001 1.587 L 12.98 1.576 L 12.934 1.558 L 12.913 1.554 M 10.954 1.671 L 10.951 1.687 L 10.949 1.66 M 10.865 1.558 L 10.879 1.57 L 10.821 1.55 L 10.79 1.548 L 10.734 1.549 L 10.753 1.544 L 10.792 1.54 M 9.852 5.407 L 9.854 5.408 L 9.853 5.407 M 16.726 5.212 L 16.785 5.283 L 16.824 5.31 L 16.78 5.279 M 13.483 4.968 L 13.464 4.925 L 13.44 4.885 L 13.463 4.915 L 13.486 4.957 L 13.498 5.055 L 13.458 5.21 L 13.494 5.066 M 5.51 4.937 L 5.521 4.953 L 5.519 4.95 M 6.857 3.263 L 6.853 3.282 L 6.827 3.334 L 6.77 3.41 L 6.836 3.316 M 9.211 3.488 L 9.191 3.518 L 9.183 3.536 L 9.19 3.519 L 9.21 3.488 L 9.276 3.444 L 9.408 3.414 L 9.409 3.414 L 9.277 3.444 L 9.211 3.488 Z" transform="matrix(1, 0, 0, 1, -7.105427357601002e-15, -7.105427357601002e-15)"/>
</svg>